<svg xmlns="http://www.w3.org/2000/svg" xmlns:svgjs="http://svgjs.com/svgjs" xmlns:xlink="http://www.w3.org/1999/xlink" width="1440" height="250" preserveAspectRatio="none" version="1.1" viewBox="0 0 1440 250"><g fill="none" mask="url(&quot;#SvgjsMask1044&quot;)"><rect width="1440" height="250" x="0" y="0" fill="#0e2a47"/><path stroke="#132e65" stroke-width="1.5" d="M-74.44 220.81L-74.44 220.81"/><path stroke="#132e65" stroke-width="1.5" d="M-74.44 220.81L-95.1 349.37"/><path stroke="#132e65" stroke-width="1.5" d="M-74.44 220.81L112.39 250"/><path stroke="#132e65" stroke-width="1.5" d="M-74.44 220.81L104.13 376.27"/><path stroke="#132e65" stroke-width="1.5" d="M-74.44 220.81L219.29 197.09"/><path stroke="#132e65" stroke-width="1.5" d="M-74.44 220.81L217.69 405.07"/><path stroke="#132e65" stroke-width="1.5" d="M-74.44 220.81L366.83 370.23"/><path stroke="#132e65" stroke-width="1.5" d="M-95.1 349.37L-95.1 349.37"/><path stroke="#132e65" stroke-width="1.5" d="M-95.1 349.37L104.13 376.27"/><path stroke="#132e65" stroke-width="1.5" d="M-95.1 349.37L112.39 250"/><path stroke="#132e65" stroke-width="1.5" d="M-95.1 349.37L217.69 405.07"/><path stroke="#132e65" stroke-width="1.5" d="M112.39 250L112.39 250"/><path stroke="#132e65" stroke-width="1.5" d="M112.39 250L219.29 197.09"/><path stroke="#132e65" stroke-width="1.5" d="M112.39 250L104.13 376.27"/><path stroke="#132e65" stroke-width="1.5" d="M112.39 250L217.69 405.07"/><path stroke="#132e65" stroke-width="1.5" d="M104.13 376.27L104.13 376.27"/><path stroke="#132e65" stroke-width="1.5" d="M104.13 376.27L217.69 405.07"/><path stroke="#132e65" stroke-width="1.5" d="M104.13 376.27L219.29 197.09"/><path stroke="#132e65" stroke-width="1.5" d="M104.13 376.27L366.83 370.23"/><path stroke="#132e65" stroke-width="1.5" d="M219.29 197.09L219.29 197.09"/><path stroke="#132e65" stroke-width="1.5" d="M219.29 197.09L395.51 226.33"/><path stroke="#132e65" stroke-width="1.5" d="M217.69 405.07L217.69 405.07"/><path stroke="#132e65" stroke-width="1.5" d="M217.69 405.07L366.83 370.23"/><path stroke="#132e65" stroke-width="1.5" d="M217.69 405.07L219.29 197.09"/><path stroke="#132e65" stroke-width="1.5" d="M217.69 405.07L395.51 226.33"/><path stroke="#132e65" stroke-width="1.5" d="M217.69 405.07L509.46 373.57"/><path stroke="#132e65" stroke-width="1.5" d="M395.51 226.33L395.51 226.33"/><path stroke="#132e65" stroke-width="1.5" d="M395.51 226.33L527.75 246.77"/><path stroke="#132e65" stroke-width="1.5" d="M395.51 226.33L366.83 370.23"/><path stroke="#132e65" stroke-width="1.5" d="M395.51 226.33L509.46 373.57"/><path stroke="#132e65" stroke-width="1.5" d="M366.83 370.23L366.83 370.23"/><path stroke="#132e65" stroke-width="1.5" d="M366.83 370.23L509.46 373.57"/><path stroke="#132e65" stroke-width="1.5" d="M527.75 246.77L527.75 246.77"/><path stroke="#132e65" stroke-width="1.5" d="M527.75 246.77L509.46 373.57"/><path stroke="#132e65" stroke-width="1.5" d="M509.46 373.57L509.46 373.57"/><path stroke="#132e65" stroke-width="1.5" d="M509.46 373.57L638.05 360.39"/><path stroke="#132e65" stroke-width="1.5" d="M509.46 373.57L684.75 204.79"/><path stroke="#132e65" stroke-width="1.5" d="M684.75 204.79L684.75 204.79"/><path stroke="#132e65" stroke-width="1.5" d="M684.75 204.79L789.93 93.65"/><path stroke="#132e65" stroke-width="1.5" d="M684.75 204.79L638.05 360.39"/><path stroke="#132e65" stroke-width="1.5" d="M638.05 360.39L638.05 360.39"/><path stroke="#132e65" stroke-width="1.5" d="M638.05 360.39L527.75 246.77"/><path stroke="#132e65" stroke-width="1.5" d="M638.05 360.39L840.25 351.1"/><path stroke="#132e65" stroke-width="1.5" d="M638.05 360.39L366.83 370.23"/><path stroke="#132e65" stroke-width="1.5" d="M789.93 93.65L789.93 93.65"/><path stroke="#132e65" stroke-width="1.5" d="M789.93 93.65L852.82 187.54"/><path stroke="#132e65" stroke-width="1.5" d="M852.82 187.54L852.82 187.54"/><path stroke="#132e65" stroke-width="1.5" d="M852.82 187.54L956.86 255.43"/><path stroke="#132e65" stroke-width="1.5" d="M852.82 187.54L955.69 80.61"/><path stroke="#132e65" stroke-width="1.5" d="M852.82 187.54L840.25 351.1"/><path stroke="#132e65" stroke-width="1.5" d="M852.82 187.54L684.75 204.79"/><path stroke="#132e65" stroke-width="1.5" d="M840.25 351.1L840.25 351.1"/><path stroke="#132e65" stroke-width="1.5" d="M840.25 351.1L958.17 379.38"/><path stroke="#132e65" stroke-width="1.5" d="M840.25 351.1L956.86 255.43"/><path stroke="#132e65" stroke-width="1.5" d="M1009.87 -85.97L1009.87 -85.97"/><path stroke="#132e65" stroke-width="1.5" d="M1009.87 -85.97L1150.42 -41.46"/><path stroke="#132e65" stroke-width="1.5" d="M1009.87 -85.97L955.69 80.61"/><path stroke="#132e65" stroke-width="1.5" d="M1009.87 -85.97L1092.86 89.74"/><path stroke="#132e65" stroke-width="1.5" d="M955.69 80.61L955.69 80.61"/><path stroke="#132e65" stroke-width="1.5" d="M955.69 80.61L1092.86 89.74"/><path stroke="#132e65" stroke-width="1.5" d="M955.69 80.61L789.93 93.65"/><path stroke="#132e65" stroke-width="1.5" d="M955.69 80.61L956.86 255.43"/><path stroke="#132e65" stroke-width="1.5" d="M956.86 255.43L956.86 255.43"/><path stroke="#132e65" stroke-width="1.5" d="M956.86 255.43L958.17 379.38"/><path stroke="#132e65" stroke-width="1.5" d="M958.17 379.38L958.17 379.38"/><path stroke="#132e65" stroke-width="1.5" d="M958.17 379.38L1131.03 348.33"/><path stroke="#132e65" stroke-width="1.5" d="M958.17 379.38L852.82 187.54"/><path stroke="#132e65" stroke-width="1.5" d="M958.17 379.38L1154.1 237.15"/><path stroke="#132e65" stroke-width="1.5" d="M958.17 379.38L955.69 80.61"/><path stroke="#132e65" stroke-width="1.5" d="M1150.42 -41.46L1150.42 -41.46"/><path stroke="#132e65" stroke-width="1.5" d="M1150.42 -41.46L1092.86 89.74"/><path stroke="#132e65" stroke-width="1.5" d="M1150.42 -41.46L1302.11 -98.42"/><path stroke="#132e65" stroke-width="1.5" d="M1150.42 -41.46L1285.92 63.02"/><path stroke="#132e65" stroke-width="1.5" d="M1150.42 -41.46L955.69 80.61"/><path stroke="#132e65" stroke-width="1.5" d="M1150.42 -41.46L1246.19 194.84"/><path stroke="#132e65" stroke-width="1.5" d="M1092.86 89.74L1092.86 89.74"/><path stroke="#132e65" stroke-width="1.5" d="M1092.86 89.74L1154.1 237.15"/><path stroke="#132e65" stroke-width="1.5" d="M1154.1 237.15L1154.1 237.15"/><path stroke="#132e65" stroke-width="1.5" d="M1154.1 237.15L1246.19 194.84"/><path stroke="#132e65" stroke-width="1.5" d="M1154.1 237.15L1131.03 348.33"/><path stroke="#132e65" stroke-width="1.5" d="M1154.1 237.15L1265.39 351.66"/><path stroke="#132e65" stroke-width="1.5" d="M1131.03 348.33L1131.03 348.33"/><path stroke="#132e65" stroke-width="1.5" d="M1131.03 348.33L1265.39 351.66"/><path stroke="#132e65" stroke-width="1.5" d="M1131.03 348.33L1246.19 194.84"/><path stroke="#132e65" stroke-width="1.5" d="M1131.03 348.33L956.86 255.43"/><path stroke="#132e65" stroke-width="1.5" d="M1131.03 348.33L1092.86 89.74"/><path stroke="#132e65" stroke-width="1.5" d="M1302.11 -98.42L1302.11 -98.42"/><path stroke="#132e65" stroke-width="1.5" d="M1302.11 -98.42L1402.29 -107.2"/><path stroke="#132e65" stroke-width="1.5" d="M1302.11 -98.42L1285.92 63.02"/><path stroke="#132e65" stroke-width="1.5" d="M1285.92 63.02L1285.92 63.02"/><path stroke="#132e65" stroke-width="1.5" d="M1285.92 63.02L1392.21 59.7"/><path stroke="#132e65" stroke-width="1.5" d="M1285.92 63.02L1246.19 194.84"/><path stroke="#132e65" stroke-width="1.5" d="M1285.92 63.02L1092.86 89.74"/><path stroke="#132e65" stroke-width="1.5" d="M1246.19 194.84L1246.19 194.84"/><path stroke="#132e65" stroke-width="1.5" d="M1246.19 194.84L1265.39 351.66"/><path stroke="#132e65" stroke-width="1.5" d="M1246.19 194.84L1421.93 229.37"/><path stroke="#132e65" stroke-width="1.5" d="M1246.19 194.84L1092.86 89.74"/><path stroke="#132e65" stroke-width="1.5" d="M1265.39 351.66L1265.39 351.66"/><path stroke="#132e65" stroke-width="1.5" d="M1265.39 351.66L1392.2 372.69"/><path stroke="#132e65" stroke-width="1.5" d="M1402.29 -107.2L1402.29 -107.2"/><path stroke="#132e65" stroke-width="1.5" d="M1402.29 -107.2L1392.21 59.7"/><path stroke="#132e65" stroke-width="1.5" d="M1392.21 59.7L1392.21 59.7"/><path stroke="#132e65" stroke-width="1.5" d="M1392.21 59.7L1539.1 90.34"/><path stroke="#132e65" stroke-width="1.5" d="M1421.93 229.37L1421.93 229.37"/><path stroke="#132e65" stroke-width="1.5" d="M1421.93 229.37L1392.2 372.69"/><path stroke="#132e65" stroke-width="1.5" d="M1421.93 229.37L1584.42 242.58"/><path stroke="#132e65" stroke-width="1.5" d="M1421.93 229.37L1392.21 59.7"/><path stroke="#132e65" stroke-width="1.5" d="M1421.93 229.37L1539.1 90.34"/><path stroke="#132e65" stroke-width="1.5" d="M1421.93 229.37L1265.39 351.66"/><path stroke="#132e65" stroke-width="1.5" d="M1392.2 372.69L1392.2 372.69"/><path stroke="#132e65" stroke-width="1.5" d="M1392.2 372.69L1596.14 399.05"/><path stroke="#132e65" stroke-width="1.5" d="M1392.2 372.69L1246.19 194.84"/><path stroke="#132e65" stroke-width="1.5" d="M1392.2 372.69L1584.42 242.58"/><path stroke="#132e65" stroke-width="1.5" d="M1392.2 372.69L1131.03 348.33"/><path stroke="#132e65" stroke-width="1.5" d="M1582.19 -41.32L1582.19 -41.32"/><path stroke="#132e65" stroke-width="1.5" d="M1582.19 -41.32L1539.1 90.34"/><path stroke="#132e65" stroke-width="1.5" d="M1582.19 -41.32L1402.29 -107.2"/><path stroke="#132e65" stroke-width="1.5" d="M1582.19 -41.32L1392.21 59.7"/><path stroke="#132e65" stroke-width="1.5" d="M1582.19 -41.32L1584.42 242.58"/><path stroke="#132e65" stroke-width="1.5" d="M1582.19 -41.32L1302.11 -98.42"/><path stroke="#132e65" stroke-width="1.5" d="M1539.1 90.34L1539.1 90.34"/><path stroke="#132e65" stroke-width="1.5" d="M1539.1 90.34L1584.42 242.58"/><path stroke="#132e65" stroke-width="1.5" d="M1584.42 242.58L1584.42 242.58"/><path stroke="#132e65" stroke-width="1.5" d="M1584.42 242.58L1596.14 399.05"/><path stroke="#132e65" stroke-width="1.5" d="M1596.14 399.05L1596.14 399.05"/><path stroke="#132e65" stroke-width="1.5" d="M1596.14 399.05L1421.93 229.37"/><path stroke="#132e65" stroke-width="1.5" d="M1596.14 399.05L1539.1 90.34"/><path stroke="#132e65" stroke-width="1.5" d="M1596.14 399.05L1265.39 351.66"/><circle cx="-74.44" cy="220.81" r="5" fill="#132e65"/><circle cx="-95.1" cy="349.37" r="5" fill="#132e65"/><circle cx="112.39" cy="250" r="5" fill="#132e65"/><circle cx="104.13" cy="376.27" r="5" fill="#132e65"/><circle cx="219.29" cy="197.09" r="5" fill="#132e65"/><circle cx="217.69" cy="405.07" r="5" fill="#132e65"/><circle cx="395.51" cy="226.33" r="5" fill="#132e65"/><circle cx="366.83" cy="370.23" r="5" fill="#132e65"/><circle cx="527.75" cy="246.77" r="5" fill="#132e65"/><circle cx="509.46" cy="373.57" r="5" fill="#132e65"/><circle cx="684.75" cy="204.79" r="5" fill="#132e65"/><circle cx="638.05" cy="360.39" r="5" fill="#132e65"/><circle cx="789.93" cy="93.65" r="5" fill="#132e65"/><circle cx="852.82" cy="187.54" r="5" fill="#132e65"/><circle cx="840.25" cy="351.1" r="5" fill="#132e65"/><circle cx="1009.87" cy="-85.97" r="5" fill="#132e65"/><circle cx="955.69" cy="80.61" r="5" fill="#132e65"/><circle cx="956.86" cy="255.43" r="5" fill="#132e65"/><circle cx="958.17" cy="379.38" r="5" fill="#132e65"/><circle cx="1150.42" cy="-41.46" r="5" fill="#132e65"/><circle cx="1092.86" cy="89.74" r="5" fill="#132e65"/><circle cx="1154.1" cy="237.15" r="5" fill="#132e65"/><circle cx="1131.03" cy="348.33" r="5" fill="#132e65"/><circle cx="1302.11" cy="-98.42" r="5" fill="#132e65"/><circle cx="1285.92" cy="63.02" r="5" fill="#132e65"/><circle cx="1246.19" cy="194.84" r="5" fill="#132e65"/><circle cx="1265.39" cy="351.66" r="5" fill="#132e65"/><circle cx="1402.29" cy="-107.2" r="5" fill="#132e65"/><circle cx="1392.21" cy="59.7" r="5" fill="#132e65"/><circle cx="1421.93" cy="229.37" r="5" fill="#132e65"/><circle cx="1392.2" cy="372.69" r="5" fill="#132e65"/><circle cx="1582.19" cy="-41.32" r="5" fill="#132e65"/><circle cx="1539.1" cy="90.34" r="5" fill="#132e65"/><circle cx="1584.42" cy="242.58" r="5" fill="#132e65"/><circle cx="1596.14" cy="399.05" r="5" fill="#132e65"/><path stroke="hsl(228.5, 77.2%, 51.5%)" stroke-width="1.5" d="M109.54 200.07L109.54 200.07"/><path stroke="hsl(228.5, 77.2%, 51.5%)" stroke-width="1.5" d="M109.54 200.07L237.58 216.41"/><path stroke="hsl(228.5, 77.2%, 51.5%)" stroke-width="1.5" d="M109.54 200.07L63.27 355.07"/><path stroke="hsl(228.5, 77.2%, 51.5%)" stroke-width="1.5" d="M237.58 216.41L237.58 216.41"/><path stroke="hsl(228.5, 77.2%, 51.5%)" stroke-width="1.5" d="M237.58 216.41L261.36 341.99"/><path stroke="hsl(228.5, 77.2%, 51.5%)" stroke-width="1.5" d="M237.58 216.41L63.27 355.07"/><path stroke="hsl(228.5, 77.2%, 51.5%)" stroke-width="1.5" d="M237.58 216.41L380.24 398.48"/><path stroke="hsl(228.5, 77.2%, 51.5%)" stroke-width="1.5" d="M237.58 216.41L489.49 214.05"/><path stroke="hsl(228.5, 77.2%, 51.5%)" stroke-width="1.5" d="M237.58 216.41L-45.87 373.58"/><path stroke="hsl(228.5, 77.2%, 51.5%)" stroke-width="1.5" d="M261.36 341.99L261.36 341.99"/><path stroke="hsl(228.5, 77.2%, 51.5%)" stroke-width="1.5" d="M261.36 341.99L380.24 398.48"/><path stroke="hsl(228.5, 77.2%, 51.5%)" stroke-width="1.5" d="M855.31 195.57L855.31 195.57"/><path stroke="hsl(228.5, 77.2%, 51.5%)" stroke-width="1.5" d="M855.31 195.57L995.02 211.61"/><path stroke="hsl(228.5, 77.2%, 51.5%)" stroke-width="1.5" d="M855.31 195.57L944.85 362.55"/><path stroke="hsl(228.5, 77.2%, 51.5%)" stroke-width="1.5" d="M855.31 195.57L639.06 245.66"/><path stroke="hsl(228.5, 77.2%, 51.5%)" stroke-width="1.5" d="M1410.58 -45.68L1410.58 -45.68"/><path stroke="hsl(228.5, 77.2%, 51.5%)" stroke-width="1.5" d="M1410.58 -45.68L1414.14 59.09"/><path stroke="hsl(228.5, 77.2%, 51.5%)" stroke-width="1.5" d="M1410.58 -45.68L1302.56 -80.92"/><path stroke="hsl(228.5, 77.2%, 51.5%)" stroke-width="1.5" d="M1414.14 59.09L1414.14 59.09"/><path stroke="hsl(228.5, 77.2%, 51.5%)" stroke-width="1.5" d="M1414.14 59.09L1543.52 56.9"/><path stroke="hsl(228.5, 77.2%, 51.5%)" stroke-width="1.5" d="M-45.87 373.58L-45.87 373.58"/><path stroke="hsl(228.5, 77.2%, 51.5%)" stroke-width="1.5" d="M-45.87 373.58L63.27 355.07"/><path stroke="hsl(228.5, 77.2%, 51.5%)" stroke-width="1.5" d="M-45.87 373.58L109.54 200.07"/><path stroke="hsl(228.5, 77.2%, 51.5%)" stroke-width="1.5" d="M-45.87 373.58L261.36 341.99"/><path stroke="hsl(228.5, 77.2%, 51.5%)" stroke-width="1.5" d="M63.27 355.07L63.27 355.07"/><path stroke="hsl(228.5, 77.2%, 51.5%)" stroke-width="1.5" d="M63.27 355.07L261.36 341.99"/><path stroke="hsl(228.5, 77.2%, 51.5%)" stroke-width="1.5" d="M63.27 355.07L380.24 398.48"/><path stroke="hsl(228.5, 77.2%, 51.5%)" stroke-width="1.5" d="M380.24 398.48L380.24 398.48"/><path stroke="hsl(228.5, 77.2%, 51.5%)" stroke-width="1.5" d="M489.49 214.05L489.49 214.05"/><path stroke="hsl(228.5, 77.2%, 51.5%)" stroke-width="1.5" d="M489.49 214.05L639.06 245.66"/><path stroke="hsl(228.5, 77.2%, 51.5%)" stroke-width="1.5" d="M489.49 214.05L549.78 367.96"/><path stroke="hsl(228.5, 77.2%, 51.5%)" stroke-width="1.5" d="M549.78 367.96L549.78 367.96"/><path stroke="hsl(228.5, 77.2%, 51.5%)" stroke-width="1.5" d="M549.78 367.96L690.24 393.82"/><path stroke="hsl(228.5, 77.2%, 51.5%)" stroke-width="1.5" d="M549.78 367.96L639.06 245.66"/><path stroke="hsl(228.5, 77.2%, 51.5%)" stroke-width="1.5" d="M549.78 367.96L380.24 398.48"/><path stroke="hsl(228.5, 77.2%, 51.5%)" stroke-width="1.5" d="M549.78 367.96L261.36 341.99"/><path stroke="hsl(228.5, 77.2%, 51.5%)" stroke-width="1.5" d="M549.78 367.96L237.58 216.41"/><path stroke="hsl(228.5, 77.2%, 51.5%)" stroke-width="1.5" d="M639.06 245.66L639.06 245.66"/><path stroke="hsl(228.5, 77.2%, 51.5%)" stroke-width="1.5" d="M690.24 393.82L690.24 393.82"/><path stroke="hsl(228.5, 77.2%, 51.5%)" stroke-width="1.5" d="M690.24 393.82L639.06 245.66"/><path stroke="hsl(228.5, 77.2%, 51.5%)" stroke-width="1.5" d="M690.24 393.82L944.85 362.55"/><path stroke="hsl(228.5, 77.2%, 51.5%)" stroke-width="1.5" d="M690.24 393.82L855.31 195.57"/><path stroke="hsl(228.5, 77.2%, 51.5%)" stroke-width="1.5" d="M995.02 211.61L995.02 211.61"/><path stroke="hsl(228.5, 77.2%, 51.5%)" stroke-width="1.5" d="M995.02 211.61L1120.52 237.85"/><path stroke="hsl(228.5, 77.2%, 51.5%)" stroke-width="1.5" d="M944.85 362.55L944.85 362.55"/><path stroke="hsl(228.5, 77.2%, 51.5%)" stroke-width="1.5" d="M944.85 362.55L995.02 211.61"/><path stroke="hsl(228.5, 77.2%, 51.5%)" stroke-width="1.5" d="M944.85 362.55L1138.09 360.27"/><path stroke="hsl(228.5, 77.2%, 51.5%)" stroke-width="1.5" d="M944.85 362.55L1120.52 237.85"/><path stroke="hsl(228.5, 77.2%, 51.5%)" stroke-width="1.5" d="M1141.25 78.26L1141.25 78.26"/><path stroke="hsl(228.5, 77.2%, 51.5%)" stroke-width="1.5" d="M1141.25 78.26L1284.81 70.54"/><path stroke="hsl(228.5, 77.2%, 51.5%)" stroke-width="1.5" d="M1141.25 78.26L1120.52 237.85"/><path stroke="hsl(228.5, 77.2%, 51.5%)" stroke-width="1.5" d="M1141.25 78.26L995.02 211.61"/><path stroke="hsl(228.5, 77.2%, 51.5%)" stroke-width="1.5" d="M1141.25 78.26L1298.81 216.05"/><path stroke="hsl(228.5, 77.2%, 51.5%)" stroke-width="1.5" d="M1120.52 237.85L1120.52 237.85"/><path stroke="hsl(228.5, 77.2%, 51.5%)" stroke-width="1.5" d="M1120.52 237.85L1138.09 360.27"/><path stroke="hsl(228.5, 77.2%, 51.5%)" stroke-width="1.5" d="M1138.09 360.27L1138.09 360.27"/><path stroke="hsl(228.5, 77.2%, 51.5%)" stroke-width="1.5" d="M1138.09 360.27L1246.87 376.31"/><path stroke="hsl(228.5, 77.2%, 51.5%)" stroke-width="1.5" d="M1138.09 360.27L995.02 211.61"/><path stroke="hsl(228.5, 77.2%, 51.5%)" stroke-width="1.5" d="M1302.56 -80.92L1302.56 -80.92"/><path stroke="hsl(228.5, 77.2%, 51.5%)" stroke-width="1.5" d="M1302.56 -80.92L1284.81 70.54"/><path stroke="hsl(228.5, 77.2%, 51.5%)" stroke-width="1.5" d="M1302.56 -80.92L1414.14 59.09"/><path stroke="hsl(228.5, 77.2%, 51.5%)" stroke-width="1.5" d="M1302.56 -80.92L1141.25 78.26"/><path stroke="hsl(228.5, 77.2%, 51.5%)" stroke-width="1.5" d="M1302.56 -80.92L1567.22 -59.36"/><path stroke="hsl(228.5, 77.2%, 51.5%)" stroke-width="1.5" d="M1284.81 70.54L1284.81 70.54"/><path stroke="hsl(228.5, 77.2%, 51.5%)" stroke-width="1.5" d="M1284.81 70.54L1414.14 59.09"/><path stroke="hsl(228.5, 77.2%, 51.5%)" stroke-width="1.5" d="M1284.81 70.54L1298.81 216.05"/><path stroke="hsl(228.5, 77.2%, 51.5%)" stroke-width="1.5" d="M1284.81 70.54L1410.58 -45.68"/><path stroke="hsl(228.5, 77.2%, 51.5%)" stroke-width="1.5" d="M1298.81 216.05L1298.81 216.05"/><path stroke="hsl(228.5, 77.2%, 51.5%)" stroke-width="1.5" d="M1298.81 216.05L1440.4 209.34"/><path stroke="hsl(228.5, 77.2%, 51.5%)" stroke-width="1.5" d="M1298.81 216.05L1246.87 376.31"/><path stroke="hsl(228.5, 77.2%, 51.5%)" stroke-width="1.5" d="M1298.81 216.05L1120.52 237.85"/><path stroke="hsl(228.5, 77.2%, 51.5%)" stroke-width="1.5" d="M1298.81 216.05L1398.45 370.93"/><path stroke="hsl(228.5, 77.2%, 51.5%)" stroke-width="1.5" d="M1298.81 216.05L1414.14 59.09"/><path stroke="hsl(228.5, 77.2%, 51.5%)" stroke-width="1.5" d="M1246.87 376.31L1246.87 376.31"/><path stroke="hsl(228.5, 77.2%, 51.5%)" stroke-width="1.5" d="M1246.87 376.31L1398.45 370.93"/><path stroke="hsl(228.5, 77.2%, 51.5%)" stroke-width="1.5" d="M1246.87 376.31L1120.52 237.85"/><path stroke="hsl(228.5, 77.2%, 51.5%)" stroke-width="1.5" d="M1246.87 376.31L1440.4 209.34"/><path stroke="hsl(228.5, 77.2%, 51.5%)" stroke-width="1.5" d="M1246.87 376.31L995.02 211.61"/><path stroke="hsl(228.5, 77.2%, 51.5%)" stroke-width="1.5" d="M1440.4 209.34L1440.4 209.34"/><path stroke="hsl(228.5, 77.2%, 51.5%)" stroke-width="1.5" d="M1440.4 209.34L1564.25 222.11"/><path stroke="hsl(228.5, 77.2%, 51.5%)" stroke-width="1.5" d="M1440.4 209.34L1414.14 59.09"/><path stroke="hsl(228.5, 77.2%, 51.5%)" stroke-width="1.5" d="M1398.45 370.93L1398.45 370.93"/><path stroke="hsl(228.5, 77.2%, 51.5%)" stroke-width="1.5" d="M1398.45 370.93L1440.4 209.34"/><path stroke="hsl(228.5, 77.2%, 51.5%)" stroke-width="1.5" d="M1398.45 370.93L1587.45 404.22"/><path stroke="hsl(228.5, 77.2%, 51.5%)" stroke-width="1.5" d="M1398.45 370.93L1564.25 222.11"/><path stroke="hsl(228.5, 77.2%, 51.5%)" stroke-width="1.5" d="M1398.45 370.93L1138.09 360.27"/><path stroke="hsl(228.5, 77.2%, 51.5%)" stroke-width="1.5" d="M1567.22 -59.36L1567.22 -59.36"/><path stroke="hsl(228.5, 77.2%, 51.5%)" stroke-width="1.5" d="M1567.22 -59.36L1543.52 56.9"/><path stroke="hsl(228.5, 77.2%, 51.5%)" stroke-width="1.5" d="M1567.22 -59.36L1410.58 -45.68"/><path stroke="hsl(228.5, 77.2%, 51.5%)" stroke-width="1.5" d="M1543.52 56.9L1543.52 56.9"/><path stroke="hsl(228.5, 77.2%, 51.5%)" stroke-width="1.5" d="M1564.25 222.11L1564.25 222.11"/><path stroke="hsl(228.5, 77.2%, 51.5%)" stroke-width="1.5" d="M1564.25 222.11L1543.52 56.9"/><path stroke="hsl(228.5, 77.2%, 51.5%)" stroke-width="1.5" d="M1564.25 222.11L1587.45 404.22"/><path stroke="hsl(228.5, 77.2%, 51.5%)" stroke-width="1.5" d="M1564.25 222.11L1414.14 59.09"/><path stroke="hsl(228.5, 77.2%, 51.5%)" stroke-width="1.5" d="M1564.25 222.11L1298.81 216.05"/><path stroke="hsl(228.5, 77.2%, 51.5%)" stroke-width="1.5" d="M1587.45 404.22L1587.45 404.22"/><path stroke="hsl(228.5, 77.2%, 51.5%)" stroke-width="1.5" d="M1587.45 404.22L1440.4 209.34"/><circle cx="109.54" cy="200.07" r="25" fill="url(#SvgjsRadialGradient1045)"/><circle cx="237.58" cy="216.41" r="25" fill="url(#SvgjsRadialGradient1045)"/><circle cx="261.36" cy="341.99" r="25" fill="url(#SvgjsRadialGradient1045)"/><circle cx="855.31" cy="195.57" r="25" fill="url(#SvgjsRadialGradient1045)"/><circle cx="1410.58" cy="-45.68" r="25" fill="url(#SvgjsRadialGradient1045)"/><circle cx="1414.14" cy="59.09" r="25" fill="url(#SvgjsRadialGradient1045)"/><circle cx="-45.87" cy="373.58" r="5" fill="#8b9ad9"/><circle cx="63.27" cy="355.07" r="5" fill="#8b9ad9"/><circle cx="380.24" cy="398.48" r="5" fill="#8b9ad9"/><circle cx="489.49" cy="214.05" r="5" fill="#8b9ad9"/><circle cx="549.78" cy="367.96" r="5" fill="#8b9ad9"/><circle cx="639.06" cy="245.66" r="5" fill="#8b9ad9"/><circle cx="690.24" cy="393.82" r="5" fill="#8b9ad9"/><circle cx="995.02" cy="211.61" r="5" fill="#8b9ad9"/><circle cx="944.85" cy="362.55" r="5" fill="#8b9ad9"/><circle cx="1141.25" cy="78.26" r="5" fill="#8b9ad9"/><circle cx="1120.52" cy="237.85" r="5" fill="#8b9ad9"/><circle cx="1138.09" cy="360.27" r="5" fill="#8b9ad9"/><circle cx="1302.56" cy="-80.92" r="5" fill="#8b9ad9"/><circle cx="1284.81" cy="70.54" r="5" fill="#8b9ad9"/><circle cx="1298.81" cy="216.05" r="5" fill="#8b9ad9"/><circle cx="1246.87" cy="376.31" r="5" fill="#8b9ad9"/><circle cx="1440.4" cy="209.34" r="5" fill="#8b9ad9"/><circle cx="1398.45" cy="370.93" r="5" fill="#8b9ad9"/><circle cx="1567.22" cy="-59.36" r="5" fill="#8b9ad9"/><circle cx="1543.52" cy="56.9" r="5" fill="#8b9ad9"/><circle cx="1564.25" cy="222.11" r="5" fill="#8b9ad9"/><circle cx="1587.45" cy="404.22" r="5" fill="#8b9ad9"/></g><defs><mask id="SvgjsMask1044"><rect width="1440" height="250" fill="#fff"/></mask><radialGradient id="SvgjsRadialGradient1045"><stop offset=".1" stop-color="#fff"/><stop offset=".2" stop-color="#1735b3"/><stop offset="1" stop-color="rgba(23, 53, 179, 0)"/></radialGradient></defs></svg>