<svg xmlns="http://www.w3.org/2000/svg" version="1.1" xmlns:xlink="http://www.w3.org/1999/xlink" xmlns:svgjs="http://svgjs.com/svgjs" width="1440" height="560" preserveAspectRatio="none" viewBox="0 0 1440 560"><g mask="url(&quot;#SvgjsMask1042&quot;)" fill="none"><rect width="1440" height="560" x="0" y="0" fill="#0e2a47"></rect><path d="M-110.84 348.88L-110.84 348.88" stroke="#132e65" stroke-width="1.5"></path><path d="M-110.84 348.88L-111.27 506.19" stroke="#132e65" stroke-width="1.5"></path><path d="M-110.84 348.88L67.68 503.18" stroke="#132e65" stroke-width="1.5"></path><path d="M-110.84 348.88L-94.99 641.96" stroke="#132e65" stroke-width="1.5"></path><path d="M-110.84 348.88L206.4 371.87" stroke="#132e65" stroke-width="1.5"></path><path d="M-111.27 506.19L-111.27 506.19" stroke="#132e65" stroke-width="1.5"></path><path d="M-111.27 506.19L-94.99 641.96" stroke="#132e65" stroke-width="1.5"></path><path d="M-111.27 506.19L67.68 503.18" stroke="#132e65" stroke-width="1.5"></path><path d="M-111.27 506.19L96.43 680.19" stroke="#132e65" stroke-width="1.5"></path><path d="M-111.27 506.19L228.63 498.81" stroke="#132e65" stroke-width="1.5"></path><path d="M-111.27 506.19L206.4 371.87" stroke="#132e65" stroke-width="1.5"></path><path d="M-94.99 641.96L-94.99 641.96" stroke="#132e65" stroke-width="1.5"></path><path d="M-94.99 641.96L96.43 680.19" stroke="#132e65" stroke-width="1.5"></path><path d="M-94.99 641.96L67.68 503.18" stroke="#132e65" stroke-width="1.5"></path><path d="M67.68 503.18L67.68 503.18" stroke="#132e65" stroke-width="1.5"></path><path d="M67.68 503.18L228.63 498.81" stroke="#132e65" stroke-width="1.5"></path><path d="M67.68 503.18L96.43 680.19" stroke="#132e65" stroke-width="1.5"></path><path d="M67.68 503.18L206.4 371.87" stroke="#132e65" stroke-width="1.5"></path><path d="M96.43 680.19L96.43 680.19" stroke="#132e65" stroke-width="1.5"></path><path d="M96.43 680.19L254.27 675.77" stroke="#132e65" stroke-width="1.5"></path><path d="M96.43 680.19L228.63 498.81" stroke="#132e65" stroke-width="1.5"></path><path d="M96.43 680.19L382.03 650.2" stroke="#132e65" stroke-width="1.5"></path><path d="M206.4 371.87L206.4 371.87" stroke="#132e65" stroke-width="1.5"></path><path d="M206.4 371.87L228.63 498.81" stroke="#132e65" stroke-width="1.5"></path><path d="M206.4 371.87L374.02 365.98" stroke="#132e65" stroke-width="1.5"></path><path d="M206.4 371.87L409.45 499.42" stroke="#132e65" stroke-width="1.5"></path><path d="M206.4 371.87L254.27 675.77" stroke="#132e65" stroke-width="1.5"></path><path d="M228.63 498.81L228.63 498.81" stroke="#132e65" stroke-width="1.5"></path><path d="M228.63 498.81L254.27 675.77" stroke="#132e65" stroke-width="1.5"></path><path d="M228.63 498.81L409.45 499.42" stroke="#132e65" stroke-width="1.5"></path><path d="M228.63 498.81L374.02 365.98" stroke="#132e65" stroke-width="1.5"></path><path d="M254.27 675.77L254.27 675.77" stroke="#132e65" stroke-width="1.5"></path><path d="M254.27 675.77L382.03 650.2" stroke="#132e65" stroke-width="1.5"></path><path d="M374.02 365.98L374.02 365.98" stroke="#132e65" stroke-width="1.5"></path><path d="M374.02 365.98L409.45 499.42" stroke="#132e65" stroke-width="1.5"></path><path d="M374.02 365.98L556.75 378.56" stroke="#132e65" stroke-width="1.5"></path><path d="M374.02 365.98L517.27 517.42" stroke="#132e65" stroke-width="1.5"></path><path d="M374.02 365.98L650.31 373.84" stroke="#132e65" stroke-width="1.5"></path><path d="M409.45 499.42L409.45 499.42" stroke="#132e65" stroke-width="1.5"></path><path d="M409.45 499.42L517.27 517.42" stroke="#132e65" stroke-width="1.5"></path><path d="M409.45 499.42L382.03 650.2" stroke="#132e65" stroke-width="1.5"></path><path d="M409.45 499.42L556.75 378.56" stroke="#132e65" stroke-width="1.5"></path><path d="M382.03 650.2L382.03 650.2" stroke="#132e65" stroke-width="1.5"></path><path d="M382.03 650.2L537.33 709.32" stroke="#132e65" stroke-width="1.5"></path><path d="M556.75 378.56L556.75 378.56" stroke="#132e65" stroke-width="1.5"></path><path d="M556.75 378.56L650.31 373.84" stroke="#132e65" stroke-width="1.5"></path><path d="M556.75 378.56L517.27 517.42" stroke="#132e65" stroke-width="1.5"></path><path d="M556.75 378.56L682.83 532.39" stroke="#132e65" stroke-width="1.5"></path><path d="M517.27 517.42L517.27 517.42" stroke="#132e65" stroke-width="1.5"></path><path d="M517.27 517.42L682.83 532.39" stroke="#132e65" stroke-width="1.5"></path><path d="M517.27 517.42L382.03 650.2" stroke="#132e65" stroke-width="1.5"></path><path d="M517.27 517.42L537.33 709.32" stroke="#132e65" stroke-width="1.5"></path><path d="M537.33 709.32L537.33 709.32" stroke="#132e65" stroke-width="1.5"></path><path d="M537.33 709.32L701.29 657.84" stroke="#132e65" stroke-width="1.5"></path><path d="M537.33 709.32L682.83 532.39" stroke="#132e65" stroke-width="1.5"></path><path d="M537.33 709.32L409.45 499.42" stroke="#132e65" stroke-width="1.5"></path><path d="M711 227.3L711 227.3" stroke="#132e65" stroke-width="1.5"></path><path d="M711 227.3L858.21 188.07" stroke="#132e65" stroke-width="1.5"></path><path d="M711 227.3L650.31 373.84" stroke="#132e65" stroke-width="1.5"></path><path d="M711 227.3L849.27 383.86" stroke="#132e65" stroke-width="1.5"></path><path d="M711 227.3L556.75 378.56" stroke="#132e65" stroke-width="1.5"></path><path d="M711 227.3L946.77 90.41" stroke="#132e65" stroke-width="1.5"></path><path d="M650.31 373.84L650.31 373.84" stroke="#132e65" stroke-width="1.5"></path><path d="M650.31 373.84L682.83 532.39" stroke="#132e65" stroke-width="1.5"></path><path d="M650.31 373.84L517.27 517.42" stroke="#132e65" stroke-width="1.5"></path><path d="M650.31 373.84L849.27 383.86" stroke="#132e65" stroke-width="1.5"></path><path d="M650.31 373.84L845.53 557.45" stroke="#132e65" stroke-width="1.5"></path><path d="M682.83 532.39L682.83 532.39" stroke="#132e65" stroke-width="1.5"></path><path d="M682.83 532.39L701.29 657.84" stroke="#132e65" stroke-width="1.5"></path><path d="M682.83 532.39L845.53 557.45" stroke="#132e65" stroke-width="1.5"></path><path d="M701.29 657.84L701.29 657.84" stroke="#132e65" stroke-width="1.5"></path><path d="M701.29 657.84L845.62 695.97" stroke="#132e65" stroke-width="1.5"></path><path d="M858.21 188.07L858.21 188.07" stroke="#132e65" stroke-width="1.5"></path><path d="M858.21 188.07L946.77 90.41" stroke="#132e65" stroke-width="1.5"></path><path d="M858.21 188.07L849.27 383.86" stroke="#132e65" stroke-width="1.5"></path><path d="M858.21 188.07L946.46 367.71" stroke="#132e65" stroke-width="1.5"></path><path d="M858.21 188.07L650.31 373.84" stroke="#132e65" stroke-width="1.5"></path><path d="M858.21 188.07L1159.78 241.32" stroke="#132e65" stroke-width="1.5"></path><path d="M849.27 383.86L849.27 383.86" stroke="#132e65" stroke-width="1.5"></path><path d="M849.27 383.86L946.46 367.71" stroke="#132e65" stroke-width="1.5"></path><path d="M849.27 383.86L845.53 557.45" stroke="#132e65" stroke-width="1.5"></path><path d="M849.27 383.86L994.51 497.14" stroke="#132e65" stroke-width="1.5"></path><path d="M845.53 557.45L845.53 557.45" stroke="#132e65" stroke-width="1.5"></path><path d="M845.53 557.45L845.62 695.97" stroke="#132e65" stroke-width="1.5"></path><path d="M845.53 557.45L994.51 497.14" stroke="#132e65" stroke-width="1.5"></path><path d="M845.62 695.97L845.62 695.97" stroke="#132e65" stroke-width="1.5"></path><path d="M845.62 695.97L949.67 685.35" stroke="#132e65" stroke-width="1.5"></path><path d="M845.62 695.97L682.83 532.39" stroke="#132e65" stroke-width="1.5"></path><path d="M845.62 695.97L994.51 497.14" stroke="#132e65" stroke-width="1.5"></path><path d="M946.77 90.41L946.77 90.41" stroke="#132e65" stroke-width="1.5"></path><path d="M946.77 90.41L1127.93 40.53" stroke="#132e65" stroke-width="1.5"></path><path d="M946.77 90.41L1088.81 -76.78" stroke="#132e65" stroke-width="1.5"></path><path d="M946.77 90.41L1159.78 241.32" stroke="#132e65" stroke-width="1.5"></path><path d="M946.46 367.71L946.46 367.71" stroke="#132e65" stroke-width="1.5"></path><path d="M994.51 497.14L994.51 497.14" stroke="#132e65" stroke-width="1.5"></path><path d="M994.51 497.14L1100.83 536.29" stroke="#132e65" stroke-width="1.5"></path><path d="M994.51 497.14L1101.63 410.69" stroke="#132e65" stroke-width="1.5"></path><path d="M994.51 497.14L946.46 367.71" stroke="#132e65" stroke-width="1.5"></path><path d="M949.67 685.35L949.67 685.35" stroke="#132e65" stroke-width="1.5"></path><path d="M949.67 685.35L845.53 557.45" stroke="#132e65" stroke-width="1.5"></path><path d="M949.67 685.35L994.51 497.14" stroke="#132e65" stroke-width="1.5"></path><path d="M949.67 685.35L1154.92 671.57" stroke="#132e65" stroke-width="1.5"></path><path d="M949.67 685.35L1100.83 536.29" stroke="#132e65" stroke-width="1.5"></path><path d="M1088.81 -76.78L1088.81 -76.78" stroke="#132e65" stroke-width="1.5"></path><path d="M1088.81 -76.78L1127.93 40.53" stroke="#132e65" stroke-width="1.5"></path><path d="M1088.81 -76.78L1278.02 -64.54" stroke="#132e65" stroke-width="1.5"></path><path d="M1127.93 40.53L1127.93 40.53" stroke="#132e65" stroke-width="1.5"></path><path d="M1127.93 40.53L1278.02 -64.54" stroke="#132e65" stroke-width="1.5"></path><path d="M1159.78 241.32L1159.78 241.32" stroke="#132e65" stroke-width="1.5"></path><path d="M1159.78 241.32L1237.52 204.72" stroke="#132e65" stroke-width="1.5"></path><path d="M1159.78 241.32L1270.15 339.14" stroke="#132e65" stroke-width="1.5"></path><path d="M1159.78 241.32L1101.63 410.69" stroke="#132e65" stroke-width="1.5"></path><path d="M1101.63 410.69L1101.63 410.69" stroke="#132e65" stroke-width="1.5"></path><path d="M1101.63 410.69L1100.83 536.29" stroke="#132e65" stroke-width="1.5"></path><path d="M1101.63 410.69L946.46 367.71" stroke="#132e65" stroke-width="1.5"></path><path d="M1100.83 536.29L1100.83 536.29" stroke="#132e65" stroke-width="1.5"></path><path d="M1100.83 536.29L1154.92 671.57" stroke="#132e65" stroke-width="1.5"></path><path d="M1100.83 536.29L1287.62 492.58" stroke="#132e65" stroke-width="1.5"></path><path d="M1100.83 536.29L1288.87 643.04" stroke="#132e65" stroke-width="1.5"></path><path d="M1154.92 671.57L1154.92 671.57" stroke="#132e65" stroke-width="1.5"></path><path d="M1154.92 671.57L1288.87 643.04" stroke="#132e65" stroke-width="1.5"></path><path d="M1154.92 671.57L1287.62 492.58" stroke="#132e65" stroke-width="1.5"></path><path d="M1154.92 671.57L994.51 497.14" stroke="#132e65" stroke-width="1.5"></path><path d="M1278.02 -64.54L1278.02 -64.54" stroke="#132e65" stroke-width="1.5"></path><path d="M1278.02 -64.54L1417.11 -107.47" stroke="#132e65" stroke-width="1.5"></path><path d="M1278.02 -64.54L1432.4 102.45" stroke="#132e65" stroke-width="1.5"></path><path d="M1278.02 -64.54L1237.52 204.72" stroke="#132e65" stroke-width="1.5"></path><path d="M1237.52 204.72L1237.52 204.72" stroke="#132e65" stroke-width="1.5"></path><path d="M1237.52 204.72L1270.15 339.14" stroke="#132e65" stroke-width="1.5"></path><path d="M1237.52 204.72L1402.31 244.56" stroke="#132e65" stroke-width="1.5"></path><path d="M1237.52 204.72L1127.93 40.53" stroke="#132e65" stroke-width="1.5"></path><path d="M1237.52 204.72L1432.4 102.45" stroke="#132e65" stroke-width="1.5"></path><path d="M1237.52 204.72L1101.63 410.69" stroke="#132e65" stroke-width="1.5"></path><path d="M1270.15 339.14L1270.15 339.14" stroke="#132e65" stroke-width="1.5"></path><path d="M1270.15 339.14L1287.62 492.58" stroke="#132e65" stroke-width="1.5"></path><path d="M1287.62 492.58L1287.62 492.58" stroke="#132e65" stroke-width="1.5"></path><path d="M1287.62 492.58L1288.87 643.04" stroke="#132e65" stroke-width="1.5"></path><path d="M1287.62 492.58L1461.48 556.97" stroke="#132e65" stroke-width="1.5"></path><path d="M1288.87 643.04L1288.87 643.04" stroke="#132e65" stroke-width="1.5"></path><path d="M1288.87 643.04L1427.43 709.28" stroke="#132e65" stroke-width="1.5"></path><path d="M1288.87 643.04L1461.48 556.97" stroke="#132e65" stroke-width="1.5"></path><path d="M1288.87 643.04L1578.34 684.04" stroke="#132e65" stroke-width="1.5"></path><path d="M1417.11 -107.47L1417.11 -107.47" stroke="#132e65" stroke-width="1.5"></path><path d="M1417.11 -107.47L1576.59 -88.23" stroke="#132e65" stroke-width="1.5"></path><path d="M1417.11 -107.47L1432.4 102.45" stroke="#132e65" stroke-width="1.5"></path><path d="M1417.11 -107.47L1543.95 73.57" stroke="#132e65" stroke-width="1.5"></path><path d="M1417.11 -107.47L1127.93 40.53" stroke="#132e65" stroke-width="1.5"></path><path d="M1417.11 -107.47L1088.81 -76.78" stroke="#132e65" stroke-width="1.5"></path><path d="M1432.4 102.45L1432.4 102.45" stroke="#132e65" stroke-width="1.5"></path><path d="M1432.4 102.45L1543.95 73.57" stroke="#132e65" stroke-width="1.5"></path><path d="M1402.31 244.56L1402.31 244.56" stroke="#132e65" stroke-width="1.5"></path><path d="M1402.31 244.56L1432.4 102.45" stroke="#132e65" stroke-width="1.5"></path><path d="M1459.03 385.42L1459.03 385.42" stroke="#132e65" stroke-width="1.5"></path><path d="M1459.03 385.42L1402.31 244.56" stroke="#132e65" stroke-width="1.5"></path><path d="M1459.03 385.42L1461.48 556.97" stroke="#132e65" stroke-width="1.5"></path><path d="M1459.03 385.42L1594.89 516.45" stroke="#132e65" stroke-width="1.5"></path><path d="M1459.03 385.42L1270.15 339.14" stroke="#132e65" stroke-width="1.5"></path><path d="M1459.03 385.42L1287.62 492.58" stroke="#132e65" stroke-width="1.5"></path><path d="M1459.03 385.42L1581.77 189.21" stroke="#132e65" stroke-width="1.5"></path><path d="M1461.48 556.97L1461.48 556.97" stroke="#132e65" stroke-width="1.5"></path><path d="M1461.48 556.97L1594.89 516.45" stroke="#132e65" stroke-width="1.5"></path><path d="M1427.43 709.28L1427.43 709.28" stroke="#132e65" stroke-width="1.5"></path><path d="M1427.43 709.28L1578.34 684.04" stroke="#132e65" stroke-width="1.5"></path><path d="M1427.43 709.28L1461.48 556.97" stroke="#132e65" stroke-width="1.5"></path><path d="M1427.43 709.28L1594.89 516.45" stroke="#132e65" stroke-width="1.5"></path><path d="M1427.43 709.28L1287.62 492.58" stroke="#132e65" stroke-width="1.5"></path><path d="M1427.43 709.28L1154.92 671.57" stroke="#132e65" stroke-width="1.5"></path><path d="M1576.59 -88.23L1576.59 -88.23" stroke="#132e65" stroke-width="1.5"></path><path d="M1543.95 73.57L1543.95 73.57" stroke="#132e65" stroke-width="1.5"></path><path d="M1543.95 73.57L1581.77 189.21" stroke="#132e65" stroke-width="1.5"></path><path d="M1543.95 73.57L1576.59 -88.23" stroke="#132e65" stroke-width="1.5"></path><path d="M1581.77 189.21L1581.77 189.21" stroke="#132e65" stroke-width="1.5"></path><path d="M1581.77 189.21L1432.4 102.45" stroke="#132e65" stroke-width="1.5"></path><path d="M1581.77 189.21L1402.31 244.56" stroke="#132e65" stroke-width="1.5"></path><path d="M1581.77 189.21L1576.59 -88.23" stroke="#132e65" stroke-width="1.5"></path><path d="M1581.77 189.21L1594.89 516.45" stroke="#132e65" stroke-width="1.5"></path><path d="M1594.89 516.45L1594.89 516.45" stroke="#132e65" stroke-width="1.5"></path><path d="M1594.89 516.45L1578.34 684.04" stroke="#132e65" stroke-width="1.5"></path><path d="M1578.34 684.04L1578.34 684.04" stroke="#132e65" stroke-width="1.5"></path><path d="M1578.34 684.04L1461.48 556.97" stroke="#132e65" stroke-width="1.5"></path><circle r="5" cx="-110.84" cy="348.88" fill="#132e65"></circle><circle r="5" cx="-111.27" cy="506.19" fill="#132e65"></circle><circle r="5" cx="-94.99" cy="641.96" fill="#132e65"></circle><circle r="5" cx="67.68" cy="503.18" fill="#132e65"></circle><circle r="5" cx="96.43" cy="680.19" fill="#132e65"></circle><circle r="5" cx="206.4" cy="371.87" fill="#132e65"></circle><circle r="5" cx="228.63" cy="498.81" fill="#132e65"></circle><circle r="5" cx="254.27" cy="675.77" fill="#132e65"></circle><circle r="5" cx="374.02" cy="365.98" fill="#132e65"></circle><circle r="5" cx="409.45" cy="499.42" fill="#132e65"></circle><circle r="5" cx="382.03" cy="650.2" fill="#132e65"></circle><circle r="5" cx="556.75" cy="378.56" fill="#132e65"></circle><circle r="5" cx="517.27" cy="517.42" fill="#132e65"></circle><circle r="5" cx="537.33" cy="709.32" fill="#132e65"></circle><circle r="5" cx="711" cy="227.3" fill="#132e65"></circle><circle r="5" cx="650.31" cy="373.84" fill="#132e65"></circle><circle r="5" cx="682.83" cy="532.39" fill="#132e65"></circle><circle r="5" cx="701.29" cy="657.84" fill="#132e65"></circle><circle r="5" cx="858.21" cy="188.07" fill="#132e65"></circle><circle r="5" cx="849.27" cy="383.86" fill="#132e65"></circle><circle r="5" cx="845.53" cy="557.45" fill="#132e65"></circle><circle r="5" cx="845.62" cy="695.97" fill="#132e65"></circle><circle r="5" cx="946.77" cy="90.41" fill="#132e65"></circle><circle r="5" cx="946.46" cy="367.71" fill="#132e65"></circle><circle r="5" cx="994.51" cy="497.14" fill="#132e65"></circle><circle r="5" cx="949.67" cy="685.35" fill="#132e65"></circle><circle r="5" cx="1088.81" cy="-76.78" fill="#132e65"></circle><circle r="5" cx="1127.93" cy="40.53" fill="#132e65"></circle><circle r="5" cx="1159.78" cy="241.32" fill="#132e65"></circle><circle r="5" cx="1101.63" cy="410.69" fill="#132e65"></circle><circle r="5" cx="1100.83" cy="536.29" fill="#132e65"></circle><circle r="5" cx="1154.92" cy="671.57" fill="#132e65"></circle><circle r="5" cx="1278.02" cy="-64.54" fill="#132e65"></circle><circle r="5" cx="1237.52" cy="204.72" fill="#132e65"></circle><circle r="5" cx="1270.15" cy="339.14" fill="#132e65"></circle><circle r="5" cx="1287.62" cy="492.58" fill="#132e65"></circle><circle r="5" cx="1288.87" cy="643.04" fill="#132e65"></circle><circle r="5" cx="1417.11" cy="-107.47" fill="#132e65"></circle><circle r="5" cx="1432.4" cy="102.45" fill="#132e65"></circle><circle r="5" cx="1402.31" cy="244.56" fill="#132e65"></circle><circle r="5" cx="1459.03" cy="385.42" fill="#132e65"></circle><circle r="5" cx="1461.48" cy="556.97" fill="#132e65"></circle><circle r="5" cx="1427.43" cy="709.28" fill="#132e65"></circle><circle r="5" cx="1576.59" cy="-88.23" fill="#132e65"></circle><circle r="5" cx="1543.95" cy="73.57" fill="#132e65"></circle><circle r="5" cx="1581.77" cy="189.21" fill="#132e65"></circle><circle r="5" cx="1594.89" cy="516.45" fill="#132e65"></circle><circle r="5" cx="1578.34" cy="684.04" fill="#132e65"></circle><path d="M79.77 685.25L79.77 685.25" stroke="hsl(228.5, 77.2%, 51.5%)" stroke-width="1.5"></path><path d="M79.77 685.25L237.84 639.41" stroke="hsl(228.5, 77.2%, 51.5%)" stroke-width="1.5"></path><path d="M79.77 685.25L60.89 514.2" stroke="hsl(228.5, 77.2%, 51.5%)" stroke-width="1.5"></path><path d="M79.77 685.25L192.67 514.23" stroke="hsl(228.5, 77.2%, 51.5%)" stroke-width="1.5"></path><path d="M79.77 685.25L-101.48 492.61" stroke="hsl(228.5, 77.2%, 51.5%)" stroke-width="1.5"></path><path d="M79.77 685.25L352.91 707.54" stroke="hsl(228.5, 77.2%, 51.5%)" stroke-width="1.5"></path><path d="M192.67 514.23L192.67 514.23" stroke="hsl(228.5, 77.2%, 51.5%)" stroke-width="1.5"></path><path d="M192.67 514.23L60.89 514.2" stroke="hsl(228.5, 77.2%, 51.5%)" stroke-width="1.5"></path><path d="M192.67 514.23L237.84 639.41" stroke="hsl(228.5, 77.2%, 51.5%)" stroke-width="1.5"></path><path d="M192.67 514.23L339.91 527.21" stroke="hsl(228.5, 77.2%, 51.5%)" stroke-width="1.5"></path><path d="M192.67 514.23L352.91 707.54" stroke="hsl(228.5, 77.2%, 51.5%)" stroke-width="1.5"></path><path d="M339.91 527.21L339.91 527.21" stroke="hsl(228.5, 77.2%, 51.5%)" stroke-width="1.5"></path><path d="M339.91 527.21L237.84 639.41" stroke="hsl(228.5, 77.2%, 51.5%)" stroke-width="1.5"></path><path d="M339.91 527.21L352.91 707.54" stroke="hsl(228.5, 77.2%, 51.5%)" stroke-width="1.5"></path><path d="M669.78 505.15L669.78 505.15" stroke="hsl(228.5, 77.2%, 51.5%)" stroke-width="1.5"></path><path d="M669.78 505.15L671.24 383.72" stroke="hsl(228.5, 77.2%, 51.5%)" stroke-width="1.5"></path><path d="M669.78 505.15L535.77 542" stroke="hsl(228.5, 77.2%, 51.5%)" stroke-width="1.5"></path><path d="M669.78 505.15L815.17 559.06" stroke="hsl(228.5, 77.2%, 51.5%)" stroke-width="1.5"></path><path d="M669.78 505.15L796.99 409.88" stroke="hsl(228.5, 77.2%, 51.5%)" stroke-width="1.5"></path><path d="M669.78 505.15L799.38 681.15" stroke="hsl(228.5, 77.2%, 51.5%)" stroke-width="1.5"></path><path d="M669.78 505.15L967.39 395.96" stroke="hsl(228.5, 77.2%, 51.5%)" stroke-width="1.5"></path><path d="M1142.02 259.42L1142.02 259.42" stroke="hsl(228.5, 77.2%, 51.5%)" stroke-width="1.5"></path><path d="M1142.02 259.42L1113.02 385.41" stroke="hsl(228.5, 77.2%, 51.5%)" stroke-width="1.5"></path><path d="M1142.02 259.42L1281.05 206.11" stroke="hsl(228.5, 77.2%, 51.5%)" stroke-width="1.5"></path><path d="M1272.17 -108.52L1272.17 -108.52" stroke="hsl(228.5, 77.2%, 51.5%)" stroke-width="1.5"></path><path d="M1272.17 -108.52L1160.49 -73.53" stroke="hsl(228.5, 77.2%, 51.5%)" stroke-width="1.5"></path><path d="M1281.05 206.11L1281.05 206.11" stroke="hsl(228.5, 77.2%, 51.5%)" stroke-width="1.5"></path><path d="M1281.05 206.11L1289.62 84.84" stroke="hsl(228.5, 77.2%, 51.5%)" stroke-width="1.5"></path><path d="M1281.05 206.11L1113.02 385.41" stroke="hsl(228.5, 77.2%, 51.5%)" stroke-width="1.5"></path><path d="M1281.05 206.11L1444.31 391.35" stroke="hsl(228.5, 77.2%, 51.5%)" stroke-width="1.5"></path><path d="M1262.09 548L1262.09 548" stroke="hsl(228.5, 77.2%, 51.5%)" stroke-width="1.5"></path><path d="M1262.09 548L1301.01 661.04" stroke="hsl(228.5, 77.2%, 51.5%)" stroke-width="1.5"></path><path d="M1262.09 548L1103.51 504.93" stroke="hsl(228.5, 77.2%, 51.5%)" stroke-width="1.5"></path><path d="M1262.09 548L1447.59 512.59" stroke="hsl(228.5, 77.2%, 51.5%)" stroke-width="1.5"></path><path d="M1262.09 548L1121.22 703.53" stroke="hsl(228.5, 77.2%, 51.5%)" stroke-width="1.5"></path><path d="M1583.04 500.65L1583.04 500.65" stroke="hsl(228.5, 77.2%, 51.5%)" stroke-width="1.5"></path><path d="M1583.04 500.65L1605.63 403.94" stroke="hsl(228.5, 77.2%, 51.5%)" stroke-width="1.5"></path><path d="M1583.04 500.65L1447.59 512.59" stroke="hsl(228.5, 77.2%, 51.5%)" stroke-width="1.5"></path><path d="M1583.04 500.65L1444.31 391.35" stroke="hsl(228.5, 77.2%, 51.5%)" stroke-width="1.5"></path><path d="M1583.04 500.65L1602.64 692.87" stroke="hsl(228.5, 77.2%, 51.5%)" stroke-width="1.5"></path><path d="M1583.04 500.65L1453.04 695.44" stroke="hsl(228.5, 77.2%, 51.5%)" stroke-width="1.5"></path><path d="M1583.04 500.65L1559.56 230.86" stroke="hsl(228.5, 77.2%, 51.5%)" stroke-width="1.5"></path><path d="M-101.48 492.61L-101.48 492.61" stroke="hsl(228.5, 77.2%, 51.5%)" stroke-width="1.5"></path><path d="M-101.48 492.61L60.89 514.2" stroke="hsl(228.5, 77.2%, 51.5%)" stroke-width="1.5"></path><path d="M-101.48 492.61L192.67 514.23" stroke="hsl(228.5, 77.2%, 51.5%)" stroke-width="1.5"></path><path d="M-101.48 492.61L237.84 639.41" stroke="hsl(228.5, 77.2%, 51.5%)" stroke-width="1.5"></path><path d="M60.89 514.2L60.89 514.2" stroke="hsl(228.5, 77.2%, 51.5%)" stroke-width="1.5"></path><path d="M60.89 514.2L237.84 639.41" stroke="hsl(228.5, 77.2%, 51.5%)" stroke-width="1.5"></path><path d="M60.89 514.2L339.91 527.21" stroke="hsl(228.5, 77.2%, 51.5%)" stroke-width="1.5"></path><path d="M60.89 514.2L352.91 707.54" stroke="hsl(228.5, 77.2%, 51.5%)" stroke-width="1.5"></path><path d="M237.84 639.41L237.84 639.41" stroke="hsl(228.5, 77.2%, 51.5%)" stroke-width="1.5"></path><path d="M237.84 639.41L352.91 707.54" stroke="hsl(228.5, 77.2%, 51.5%)" stroke-width="1.5"></path><path d="M352.91 707.54L352.91 707.54" stroke="hsl(228.5, 77.2%, 51.5%)" stroke-width="1.5"></path><path d="M352.91 707.54L535.77 542" stroke="hsl(228.5, 77.2%, 51.5%)" stroke-width="1.5"></path><path d="M535.77 542L535.77 542" stroke="hsl(228.5, 77.2%, 51.5%)" stroke-width="1.5"></path><path d="M535.77 542L339.91 527.21" stroke="hsl(228.5, 77.2%, 51.5%)" stroke-width="1.5"></path><path d="M535.77 542L671.24 383.72" stroke="hsl(228.5, 77.2%, 51.5%)" stroke-width="1.5"></path><path d="M671.24 383.72L671.24 383.72" stroke="hsl(228.5, 77.2%, 51.5%)" stroke-width="1.5"></path><path d="M671.24 383.72L796.99 409.88" stroke="hsl(228.5, 77.2%, 51.5%)" stroke-width="1.5"></path><path d="M671.24 383.72L815.17 559.06" stroke="hsl(228.5, 77.2%, 51.5%)" stroke-width="1.5"></path><path d="M671.24 383.72L967.39 395.96" stroke="hsl(228.5, 77.2%, 51.5%)" stroke-width="1.5"></path><path d="M796.99 409.88L796.99 409.88" stroke="hsl(228.5, 77.2%, 51.5%)" stroke-width="1.5"></path><path d="M796.99 409.88L815.17 559.06" stroke="hsl(228.5, 77.2%, 51.5%)" stroke-width="1.5"></path><path d="M796.99 409.88L967.39 395.96" stroke="hsl(228.5, 77.2%, 51.5%)" stroke-width="1.5"></path><path d="M796.99 409.88L972.92 244.67" stroke="hsl(228.5, 77.2%, 51.5%)" stroke-width="1.5"></path><path d="M796.99 409.88L799.38 681.15" stroke="hsl(228.5, 77.2%, 51.5%)" stroke-width="1.5"></path><path d="M815.17 559.06L815.17 559.06" stroke="hsl(228.5, 77.2%, 51.5%)" stroke-width="1.5"></path><path d="M815.17 559.06L799.38 681.15" stroke="hsl(228.5, 77.2%, 51.5%)" stroke-width="1.5"></path><path d="M815.17 559.06L1004.11 668.78" stroke="hsl(228.5, 77.2%, 51.5%)" stroke-width="1.5"></path><path d="M799.38 681.15L799.38 681.15" stroke="hsl(228.5, 77.2%, 51.5%)" stroke-width="1.5"></path><path d="M799.38 681.15L1004.11 668.78" stroke="hsl(228.5, 77.2%, 51.5%)" stroke-width="1.5"></path><path d="M972.92 244.67L972.92 244.67" stroke="hsl(228.5, 77.2%, 51.5%)" stroke-width="1.5"></path><path d="M972.92 244.67L967.39 395.96" stroke="hsl(228.5, 77.2%, 51.5%)" stroke-width="1.5"></path><path d="M967.39 395.96L967.39 395.96" stroke="hsl(228.5, 77.2%, 51.5%)" stroke-width="1.5"></path><path d="M967.39 395.96L1113.02 385.41" stroke="hsl(228.5, 77.2%, 51.5%)" stroke-width="1.5"></path><path d="M967.39 395.96L1103.51 504.93" stroke="hsl(228.5, 77.2%, 51.5%)" stroke-width="1.5"></path><path d="M967.39 395.96L1142.02 259.42" stroke="hsl(228.5, 77.2%, 51.5%)" stroke-width="1.5"></path><path d="M1004.11 668.78L1004.11 668.78" stroke="hsl(228.5, 77.2%, 51.5%)" stroke-width="1.5"></path><path d="M1004.11 668.78L1121.22 703.53" stroke="hsl(228.5, 77.2%, 51.5%)" stroke-width="1.5"></path><path d="M1004.11 668.78L1103.51 504.93" stroke="hsl(228.5, 77.2%, 51.5%)" stroke-width="1.5"></path><path d="M1160.49 -73.53L1160.49 -73.53" stroke="hsl(228.5, 77.2%, 51.5%)" stroke-width="1.5"></path><path d="M1160.49 -73.53L1289.62 84.84" stroke="hsl(228.5, 77.2%, 51.5%)" stroke-width="1.5"></path><path d="M1160.49 -73.53L1412.83 -110.23" stroke="hsl(228.5, 77.2%, 51.5%)" stroke-width="1.5"></path><path d="M1113.02 385.41L1113.02 385.41" stroke="hsl(228.5, 77.2%, 51.5%)" stroke-width="1.5"></path><path d="M1113.02 385.41L1103.51 504.93" stroke="hsl(228.5, 77.2%, 51.5%)" stroke-width="1.5"></path><path d="M1103.51 504.93L1103.51 504.93" stroke="hsl(228.5, 77.2%, 51.5%)" stroke-width="1.5"></path><path d="M1121.22 703.53L1121.22 703.53" stroke="hsl(228.5, 77.2%, 51.5%)" stroke-width="1.5"></path><path d="M1121.22 703.53L1301.01 661.04" stroke="hsl(228.5, 77.2%, 51.5%)" stroke-width="1.5"></path><path d="M1121.22 703.53L1103.51 504.93" stroke="hsl(228.5, 77.2%, 51.5%)" stroke-width="1.5"></path><path d="M1121.22 703.53L1113.02 385.41" stroke="hsl(228.5, 77.2%, 51.5%)" stroke-width="1.5"></path><path d="M1289.62 84.84L1289.62 84.84" stroke="hsl(228.5, 77.2%, 51.5%)" stroke-width="1.5"></path><path d="M1289.62 84.84L1272.17 -108.52" stroke="hsl(228.5, 77.2%, 51.5%)" stroke-width="1.5"></path><path d="M1289.62 84.84L1142.02 259.42" stroke="hsl(228.5, 77.2%, 51.5%)" stroke-width="1.5"></path><path d="M1301.01 661.04L1301.01 661.04" stroke="hsl(228.5, 77.2%, 51.5%)" stroke-width="1.5"></path><path d="M1301.01 661.04L1453.04 695.44" stroke="hsl(228.5, 77.2%, 51.5%)" stroke-width="1.5"></path><path d="M1301.01 661.04L1447.59 512.59" stroke="hsl(228.5, 77.2%, 51.5%)" stroke-width="1.5"></path><path d="M1301.01 661.04L1103.51 504.93" stroke="hsl(228.5, 77.2%, 51.5%)" stroke-width="1.5"></path><path d="M1412.83 -110.23L1412.83 -110.23" stroke="hsl(228.5, 77.2%, 51.5%)" stroke-width="1.5"></path><path d="M1412.83 -110.23L1272.17 -108.52" stroke="hsl(228.5, 77.2%, 51.5%)" stroke-width="1.5"></path><path d="M1412.83 -110.23L1601.16 -46.5" stroke="hsl(228.5, 77.2%, 51.5%)" stroke-width="1.5"></path><path d="M1444.31 391.35L1444.31 391.35" stroke="hsl(228.5, 77.2%, 51.5%)" stroke-width="1.5"></path><path d="M1444.31 391.35L1447.59 512.59" stroke="hsl(228.5, 77.2%, 51.5%)" stroke-width="1.5"></path><path d="M1444.31 391.35L1605.63 403.94" stroke="hsl(228.5, 77.2%, 51.5%)" stroke-width="1.5"></path><path d="M1444.31 391.35L1559.56 230.86" stroke="hsl(228.5, 77.2%, 51.5%)" stroke-width="1.5"></path><path d="M1444.31 391.35L1262.09 548" stroke="hsl(228.5, 77.2%, 51.5%)" stroke-width="1.5"></path><path d="M1447.59 512.59L1447.59 512.59" stroke="hsl(228.5, 77.2%, 51.5%)" stroke-width="1.5"></path><path d="M1447.59 512.59L1453.04 695.44" stroke="hsl(228.5, 77.2%, 51.5%)" stroke-width="1.5"></path><path d="M1453.04 695.44L1453.04 695.44" stroke="hsl(228.5, 77.2%, 51.5%)" stroke-width="1.5"></path><path d="M1453.04 695.44L1602.64 692.87" stroke="hsl(228.5, 77.2%, 51.5%)" stroke-width="1.5"></path><path d="M1453.04 695.44L1262.09 548" stroke="hsl(228.5, 77.2%, 51.5%)" stroke-width="1.5"></path><path d="M1453.04 695.44L1444.31 391.35" stroke="hsl(228.5, 77.2%, 51.5%)" stroke-width="1.5"></path><path d="M1601.16 -46.5L1601.16 -46.5" stroke="hsl(228.5, 77.2%, 51.5%)" stroke-width="1.5"></path><path d="M1601.16 -46.5L1567.46 61.04" stroke="hsl(228.5, 77.2%, 51.5%)" stroke-width="1.5"></path><path d="M1567.46 61.04L1567.46 61.04" stroke="hsl(228.5, 77.2%, 51.5%)" stroke-width="1.5"></path><path d="M1567.46 61.04L1559.56 230.86" stroke="hsl(228.5, 77.2%, 51.5%)" stroke-width="1.5"></path><path d="M1567.46 61.04L1412.83 -110.23" stroke="hsl(228.5, 77.2%, 51.5%)" stroke-width="1.5"></path><path d="M1559.56 230.86L1559.56 230.86" stroke="hsl(228.5, 77.2%, 51.5%)" stroke-width="1.5"></path><path d="M1559.56 230.86L1605.63 403.94" stroke="hsl(228.5, 77.2%, 51.5%)" stroke-width="1.5"></path><path d="M1559.56 230.86L1281.05 206.11" stroke="hsl(228.5, 77.2%, 51.5%)" stroke-width="1.5"></path><path d="M1559.56 230.86L1601.16 -46.5" stroke="hsl(228.5, 77.2%, 51.5%)" stroke-width="1.5"></path><path d="M1605.63 403.94L1605.63 403.94" stroke="hsl(228.5, 77.2%, 51.5%)" stroke-width="1.5"></path><path d="M1602.64 692.87L1602.64 692.87" stroke="hsl(228.5, 77.2%, 51.5%)" stroke-width="1.5"></path><circle r="25" cx="79.77" cy="685.25" fill="url(#SvgjsRadialGradient1043)"></circle><circle r="25" cx="192.67" cy="514.23" fill="url(#SvgjsRadialGradient1043)"></circle><circle r="25" cx="339.91" cy="527.21" fill="url(#SvgjsRadialGradient1043)"></circle><circle r="25" cx="669.78" cy="505.15" fill="url(#SvgjsRadialGradient1043)"></circle><circle r="25" cx="1142.02" cy="259.42" fill="url(#SvgjsRadialGradient1043)"></circle><circle r="25" cx="1272.17" cy="-108.52" fill="url(#SvgjsRadialGradient1043)"></circle><circle r="25" cx="1281.05" cy="206.11" fill="url(#SvgjsRadialGradient1043)"></circle><circle r="25" cx="1262.09" cy="548" fill="url(#SvgjsRadialGradient1043)"></circle><circle r="25" cx="1583.04" cy="500.65" fill="url(#SvgjsRadialGradient1043)"></circle><circle r="5" cx="-101.48" cy="492.61" fill="#8b9ad9"></circle><circle r="5" cx="60.89" cy="514.2" fill="#8b9ad9"></circle><circle r="5" cx="237.84" cy="639.41" fill="#8b9ad9"></circle><circle r="5" cx="352.91" cy="707.54" fill="#8b9ad9"></circle><circle r="5" cx="535.77" cy="542" fill="#8b9ad9"></circle><circle r="5" cx="671.24" cy="383.72" fill="#8b9ad9"></circle><circle r="5" cx="796.99" cy="409.88" fill="#8b9ad9"></circle><circle r="5" cx="815.17" cy="559.06" fill="#8b9ad9"></circle><circle r="5" cx="799.38" cy="681.15" fill="#8b9ad9"></circle><circle r="5" cx="972.92" cy="244.67" fill="#8b9ad9"></circle><circle r="5" cx="967.39" cy="395.96" fill="#8b9ad9"></circle><circle r="5" cx="1004.11" cy="668.78" fill="#8b9ad9"></circle><circle r="5" cx="1160.49" cy="-73.53" fill="#8b9ad9"></circle><circle r="5" cx="1113.02" cy="385.41" fill="#8b9ad9"></circle><circle r="5" cx="1103.51" cy="504.93" fill="#8b9ad9"></circle><circle r="5" cx="1121.22" cy="703.53" fill="#8b9ad9"></circle><circle r="5" cx="1289.62" cy="84.84" fill="#8b9ad9"></circle><circle r="5" cx="1301.01" cy="661.04" fill="#8b9ad9"></circle><circle r="5" cx="1412.83" cy="-110.23" fill="#8b9ad9"></circle><circle r="5" cx="1444.31" cy="391.35" fill="#8b9ad9"></circle><circle r="5" cx="1447.59" cy="512.59" fill="#8b9ad9"></circle><circle r="5" cx="1453.04" cy="695.44" fill="#8b9ad9"></circle><circle r="5" cx="1601.16" cy="-46.5" fill="#8b9ad9"></circle><circle r="5" cx="1567.46" cy="61.04" fill="#8b9ad9"></circle><circle r="5" cx="1559.56" cy="230.86" fill="#8b9ad9"></circle><circle r="5" cx="1605.63" cy="403.94" fill="#8b9ad9"></circle><circle r="5" cx="1602.64" cy="692.87" fill="#8b9ad9"></circle></g><defs><mask id="SvgjsMask1042"><rect width="1440" height="560" fill="#ffffff"></rect></mask><radialGradient id="SvgjsRadialGradient1043"><stop stop-color="#ffffff" offset="0.1"></stop><stop stop-color="#1735b3" offset="0.2"></stop><stop stop-color="rgba(23, 53, 179, 0)" offset="1"></stop></radialGradient></defs></svg>