<svg xmlns="http://www.w3.org/2000/svg" xmlns:svgjs="http://svgjs.com/svgjs" xmlns:xlink="http://www.w3.org/1999/xlink" width="1440" height="560" preserveAspectRatio="none" version="1.1" viewBox="0 0 1440 560"><g fill="none" mask="url(&quot;#SvgjsMask1042&quot;)"><rect width="1440" height="560" x="0" y="0" fill="#0e2a47"/><path stroke="#132e65" stroke-width="1.5" d="M-110.84 348.88L-110.84 348.88"/><path stroke="#132e65" stroke-width="1.5" d="M-110.84 348.88L-111.27 506.19"/><path stroke="#132e65" stroke-width="1.5" d="M-110.84 348.88L67.68 503.18"/><path stroke="#132e65" stroke-width="1.5" d="M-110.84 348.88L-94.99 641.96"/><path stroke="#132e65" stroke-width="1.5" d="M-110.84 348.88L206.4 371.87"/><path stroke="#132e65" stroke-width="1.5" d="M-111.27 506.19L-111.27 506.19"/><path stroke="#132e65" stroke-width="1.5" d="M-111.27 506.19L-94.99 641.96"/><path stroke="#132e65" stroke-width="1.5" d="M-111.27 506.19L67.68 503.18"/><path stroke="#132e65" stroke-width="1.5" d="M-111.27 506.19L96.43 680.19"/><path stroke="#132e65" stroke-width="1.5" d="M-111.27 506.19L228.63 498.81"/><path stroke="#132e65" stroke-width="1.5" d="M-111.27 506.19L206.4 371.87"/><path stroke="#132e65" stroke-width="1.5" d="M-94.99 641.96L-94.99 641.96"/><path stroke="#132e65" stroke-width="1.5" d="M-94.99 641.96L96.43 680.19"/><path stroke="#132e65" stroke-width="1.5" d="M-94.99 641.96L67.68 503.18"/><path stroke="#132e65" stroke-width="1.5" d="M67.68 503.18L67.68 503.18"/><path stroke="#132e65" stroke-width="1.5" d="M67.68 503.18L228.63 498.81"/><path stroke="#132e65" stroke-width="1.5" d="M67.68 503.18L96.43 680.19"/><path stroke="#132e65" stroke-width="1.5" d="M67.68 503.18L206.4 371.87"/><path stroke="#132e65" stroke-width="1.5" d="M96.43 680.19L96.43 680.19"/><path stroke="#132e65" stroke-width="1.5" d="M96.43 680.19L254.27 675.77"/><path stroke="#132e65" stroke-width="1.5" d="M96.43 680.19L228.63 498.81"/><path stroke="#132e65" stroke-width="1.5" d="M96.43 680.19L382.03 650.2"/><path stroke="#132e65" stroke-width="1.5" d="M206.4 371.87L206.4 371.87"/><path stroke="#132e65" stroke-width="1.5" d="M206.4 371.87L228.63 498.81"/><path stroke="#132e65" stroke-width="1.5" d="M206.4 371.87L374.02 365.98"/><path stroke="#132e65" stroke-width="1.5" d="M206.4 371.87L409.45 499.42"/><path stroke="#132e65" stroke-width="1.5" d="M206.4 371.87L254.27 675.77"/><path stroke="#132e65" stroke-width="1.5" d="M228.63 498.81L228.63 498.81"/><path stroke="#132e65" stroke-width="1.5" d="M228.63 498.81L254.27 675.77"/><path stroke="#132e65" stroke-width="1.5" d="M228.63 498.81L409.45 499.42"/><path stroke="#132e65" stroke-width="1.5" d="M228.63 498.81L374.02 365.98"/><path stroke="#132e65" stroke-width="1.5" d="M254.27 675.77L254.27 675.77"/><path stroke="#132e65" stroke-width="1.5" d="M254.27 675.77L382.03 650.2"/><path stroke="#132e65" stroke-width="1.5" d="M374.02 365.98L374.02 365.98"/><path stroke="#132e65" stroke-width="1.5" d="M374.02 365.98L409.45 499.42"/><path stroke="#132e65" stroke-width="1.5" d="M374.02 365.98L556.75 378.56"/><path stroke="#132e65" stroke-width="1.5" d="M374.02 365.98L517.27 517.42"/><path stroke="#132e65" stroke-width="1.5" d="M374.02 365.98L650.31 373.84"/><path stroke="#132e65" stroke-width="1.5" d="M409.45 499.42L409.45 499.42"/><path stroke="#132e65" stroke-width="1.5" d="M409.45 499.42L517.27 517.42"/><path stroke="#132e65" stroke-width="1.5" d="M409.45 499.42L382.03 650.2"/><path stroke="#132e65" stroke-width="1.5" d="M409.45 499.42L556.75 378.56"/><path stroke="#132e65" stroke-width="1.5" d="M382.03 650.2L382.03 650.2"/><path stroke="#132e65" stroke-width="1.5" d="M382.03 650.2L537.33 709.32"/><path stroke="#132e65" stroke-width="1.5" d="M556.75 378.56L556.75 378.56"/><path stroke="#132e65" stroke-width="1.5" d="M556.75 378.56L650.31 373.84"/><path stroke="#132e65" stroke-width="1.5" d="M556.75 378.56L517.27 517.42"/><path stroke="#132e65" stroke-width="1.5" d="M556.75 378.56L682.83 532.39"/><path stroke="#132e65" stroke-width="1.5" d="M517.27 517.42L517.27 517.42"/><path stroke="#132e65" stroke-width="1.5" d="M517.27 517.42L682.83 532.39"/><path stroke="#132e65" stroke-width="1.5" d="M517.27 517.42L382.03 650.2"/><path stroke="#132e65" stroke-width="1.5" d="M517.27 517.42L537.33 709.32"/><path stroke="#132e65" stroke-width="1.5" d="M537.33 709.32L537.33 709.32"/><path stroke="#132e65" stroke-width="1.5" d="M537.33 709.32L701.29 657.84"/><path stroke="#132e65" stroke-width="1.5" d="M537.33 709.32L682.83 532.39"/><path stroke="#132e65" stroke-width="1.5" d="M537.33 709.32L409.45 499.42"/><path stroke="#132e65" stroke-width="1.5" d="M711 227.3L711 227.3"/><path stroke="#132e65" stroke-width="1.5" d="M711 227.3L858.21 188.07"/><path stroke="#132e65" stroke-width="1.5" d="M711 227.3L650.31 373.84"/><path stroke="#132e65" stroke-width="1.5" d="M711 227.3L849.27 383.86"/><path stroke="#132e65" stroke-width="1.5" d="M711 227.3L556.75 378.56"/><path stroke="#132e65" stroke-width="1.5" d="M711 227.3L946.77 90.41"/><path stroke="#132e65" stroke-width="1.5" d="M650.31 373.84L650.31 373.84"/><path stroke="#132e65" stroke-width="1.5" d="M650.31 373.84L682.83 532.39"/><path stroke="#132e65" stroke-width="1.5" d="M650.31 373.84L517.27 517.42"/><path stroke="#132e65" stroke-width="1.5" d="M650.31 373.84L849.27 383.86"/><path stroke="#132e65" stroke-width="1.5" d="M650.31 373.84L845.53 557.45"/><path stroke="#132e65" stroke-width="1.5" d="M682.83 532.39L682.83 532.39"/><path stroke="#132e65" stroke-width="1.5" d="M682.83 532.39L701.29 657.84"/><path stroke="#132e65" stroke-width="1.5" d="M682.83 532.39L845.53 557.45"/><path stroke="#132e65" stroke-width="1.5" d="M701.29 657.84L701.29 657.84"/><path stroke="#132e65" stroke-width="1.5" d="M701.29 657.84L845.62 695.97"/><path stroke="#132e65" stroke-width="1.5" d="M858.21 188.07L858.21 188.07"/><path stroke="#132e65" stroke-width="1.5" d="M858.21 188.07L946.77 90.41"/><path stroke="#132e65" stroke-width="1.5" d="M858.21 188.07L849.27 383.86"/><path stroke="#132e65" stroke-width="1.5" d="M858.21 188.07L946.46 367.71"/><path stroke="#132e65" stroke-width="1.5" d="M858.21 188.07L650.31 373.84"/><path stroke="#132e65" stroke-width="1.5" d="M858.21 188.07L1159.78 241.32"/><path stroke="#132e65" stroke-width="1.5" d="M849.27 383.86L849.27 383.86"/><path stroke="#132e65" stroke-width="1.5" d="M849.27 383.86L946.46 367.71"/><path stroke="#132e65" stroke-width="1.5" d="M849.27 383.86L845.53 557.45"/><path stroke="#132e65" stroke-width="1.5" d="M849.27 383.86L994.51 497.14"/><path stroke="#132e65" stroke-width="1.5" d="M845.53 557.45L845.53 557.45"/><path stroke="#132e65" stroke-width="1.5" d="M845.53 557.45L845.62 695.97"/><path stroke="#132e65" stroke-width="1.5" d="M845.53 557.45L994.51 497.14"/><path stroke="#132e65" stroke-width="1.5" d="M845.62 695.97L845.62 695.97"/><path stroke="#132e65" stroke-width="1.5" d="M845.62 695.97L949.67 685.35"/><path stroke="#132e65" stroke-width="1.5" d="M845.62 695.97L682.83 532.39"/><path stroke="#132e65" stroke-width="1.5" d="M845.62 695.97L994.51 497.14"/><path stroke="#132e65" stroke-width="1.5" d="M946.77 90.41L946.77 90.41"/><path stroke="#132e65" stroke-width="1.5" d="M946.77 90.41L1127.93 40.53"/><path stroke="#132e65" stroke-width="1.5" d="M946.77 90.41L1088.81 -76.78"/><path stroke="#132e65" stroke-width="1.5" d="M946.77 90.41L1159.78 241.32"/><path stroke="#132e65" stroke-width="1.5" d="M946.46 367.71L946.46 367.71"/><path stroke="#132e65" stroke-width="1.5" d="M994.51 497.14L994.51 497.14"/><path stroke="#132e65" stroke-width="1.5" d="M994.51 497.14L1100.83 536.29"/><path stroke="#132e65" stroke-width="1.5" d="M994.51 497.14L1101.63 410.69"/><path stroke="#132e65" stroke-width="1.5" d="M994.51 497.14L946.46 367.71"/><path stroke="#132e65" stroke-width="1.5" d="M949.67 685.35L949.67 685.35"/><path stroke="#132e65" stroke-width="1.5" d="M949.67 685.35L845.53 557.45"/><path stroke="#132e65" stroke-width="1.5" d="M949.67 685.35L994.51 497.14"/><path stroke="#132e65" stroke-width="1.5" d="M949.67 685.35L1154.92 671.57"/><path stroke="#132e65" stroke-width="1.5" d="M949.67 685.35L1100.83 536.29"/><path stroke="#132e65" stroke-width="1.5" d="M1088.81 -76.78L1088.81 -76.78"/><path stroke="#132e65" stroke-width="1.5" d="M1088.81 -76.78L1127.93 40.53"/><path stroke="#132e65" stroke-width="1.5" d="M1088.81 -76.78L1278.02 -64.54"/><path stroke="#132e65" stroke-width="1.5" d="M1127.93 40.53L1127.93 40.53"/><path stroke="#132e65" stroke-width="1.5" d="M1127.93 40.53L1278.02 -64.54"/><path stroke="#132e65" stroke-width="1.5" d="M1159.78 241.32L1159.78 241.32"/><path stroke="#132e65" stroke-width="1.5" d="M1159.78 241.32L1237.52 204.72"/><path stroke="#132e65" stroke-width="1.5" d="M1159.78 241.32L1270.15 339.14"/><path stroke="#132e65" stroke-width="1.5" d="M1159.78 241.32L1101.63 410.69"/><path stroke="#132e65" stroke-width="1.5" d="M1101.63 410.69L1101.63 410.69"/><path stroke="#132e65" stroke-width="1.5" d="M1101.63 410.69L1100.83 536.29"/><path stroke="#132e65" stroke-width="1.5" d="M1101.63 410.69L946.46 367.71"/><path stroke="#132e65" stroke-width="1.5" d="M1100.83 536.29L1100.83 536.29"/><path stroke="#132e65" stroke-width="1.5" d="M1100.83 536.29L1154.92 671.57"/><path stroke="#132e65" stroke-width="1.5" d="M1100.83 536.29L1287.62 492.58"/><path stroke="#132e65" stroke-width="1.5" d="M1100.83 536.29L1288.87 643.04"/><path stroke="#132e65" stroke-width="1.5" d="M1154.92 671.57L1154.92 671.57"/><path stroke="#132e65" stroke-width="1.5" d="M1154.92 671.57L1288.87 643.04"/><path stroke="#132e65" stroke-width="1.5" d="M1154.92 671.57L1287.62 492.58"/><path stroke="#132e65" stroke-width="1.5" d="M1154.92 671.57L994.51 497.14"/><path stroke="#132e65" stroke-width="1.5" d="M1278.02 -64.54L1278.02 -64.54"/><path stroke="#132e65" stroke-width="1.5" d="M1278.02 -64.54L1417.11 -107.47"/><path stroke="#132e65" stroke-width="1.5" d="M1278.02 -64.54L1432.4 102.45"/><path stroke="#132e65" stroke-width="1.5" d="M1278.02 -64.54L1237.52 204.72"/><path stroke="#132e65" stroke-width="1.5" d="M1237.52 204.72L1237.52 204.72"/><path stroke="#132e65" stroke-width="1.5" d="M1237.52 204.72L1270.15 339.14"/><path stroke="#132e65" stroke-width="1.5" d="M1237.52 204.72L1402.31 244.56"/><path stroke="#132e65" stroke-width="1.5" d="M1237.52 204.72L1127.93 40.53"/><path stroke="#132e65" stroke-width="1.5" d="M1237.52 204.72L1432.4 102.45"/><path stroke="#132e65" stroke-width="1.5" d="M1237.52 204.72L1101.63 410.69"/><path stroke="#132e65" stroke-width="1.5" d="M1270.15 339.14L1270.15 339.14"/><path stroke="#132e65" stroke-width="1.5" d="M1270.15 339.14L1287.62 492.58"/><path stroke="#132e65" stroke-width="1.5" d="M1287.62 492.58L1287.62 492.58"/><path stroke="#132e65" stroke-width="1.5" d="M1287.62 492.58L1288.87 643.04"/><path stroke="#132e65" stroke-width="1.5" d="M1287.62 492.58L1461.48 556.97"/><path stroke="#132e65" stroke-width="1.5" d="M1288.87 643.04L1288.87 643.04"/><path stroke="#132e65" stroke-width="1.5" d="M1288.87 643.04L1427.43 709.28"/><path stroke="#132e65" stroke-width="1.5" d="M1288.87 643.04L1461.48 556.97"/><path stroke="#132e65" stroke-width="1.5" d="M1288.87 643.04L1578.34 684.04"/><path stroke="#132e65" stroke-width="1.5" d="M1417.11 -107.47L1417.11 -107.47"/><path stroke="#132e65" stroke-width="1.5" d="M1417.11 -107.47L1576.59 -88.23"/><path stroke="#132e65" stroke-width="1.5" d="M1417.11 -107.47L1432.4 102.45"/><path stroke="#132e65" stroke-width="1.5" d="M1417.11 -107.47L1543.95 73.57"/><path stroke="#132e65" stroke-width="1.5" d="M1417.11 -107.47L1127.93 40.53"/><path stroke="#132e65" stroke-width="1.5" d="M1417.11 -107.47L1088.81 -76.78"/><path stroke="#132e65" stroke-width="1.5" d="M1432.4 102.45L1432.4 102.45"/><path stroke="#132e65" stroke-width="1.5" d="M1432.4 102.45L1543.95 73.57"/><path stroke="#132e65" stroke-width="1.5" d="M1402.31 244.56L1402.31 244.56"/><path stroke="#132e65" stroke-width="1.5" d="M1402.31 244.56L1432.4 102.45"/><path stroke="#132e65" stroke-width="1.5" d="M1459.03 385.42L1459.03 385.42"/><path stroke="#132e65" stroke-width="1.5" d="M1459.03 385.42L1402.31 244.56"/><path stroke="#132e65" stroke-width="1.5" d="M1459.03 385.42L1461.48 556.97"/><path stroke="#132e65" stroke-width="1.5" d="M1459.03 385.42L1594.89 516.45"/><path stroke="#132e65" stroke-width="1.5" d="M1459.03 385.42L1270.15 339.14"/><path stroke="#132e65" stroke-width="1.5" d="M1459.03 385.42L1287.62 492.58"/><path stroke="#132e65" stroke-width="1.5" d="M1459.03 385.42L1581.77 189.21"/><path stroke="#132e65" stroke-width="1.5" d="M1461.48 556.97L1461.48 556.97"/><path stroke="#132e65" stroke-width="1.5" d="M1461.48 556.97L1594.89 516.45"/><path stroke="#132e65" stroke-width="1.5" d="M1427.43 709.28L1427.43 709.28"/><path stroke="#132e65" stroke-width="1.5" d="M1427.43 709.28L1578.34 684.04"/><path stroke="#132e65" stroke-width="1.5" d="M1427.43 709.28L1461.48 556.97"/><path stroke="#132e65" stroke-width="1.5" d="M1427.43 709.28L1594.89 516.45"/><path stroke="#132e65" stroke-width="1.5" d="M1427.43 709.28L1287.62 492.58"/><path stroke="#132e65" stroke-width="1.5" d="M1427.43 709.28L1154.92 671.57"/><path stroke="#132e65" stroke-width="1.5" d="M1576.59 -88.23L1576.59 -88.23"/><path stroke="#132e65" stroke-width="1.5" d="M1543.95 73.57L1543.95 73.57"/><path stroke="#132e65" stroke-width="1.5" d="M1543.95 73.57L1581.77 189.21"/><path stroke="#132e65" stroke-width="1.5" d="M1543.95 73.57L1576.59 -88.23"/><path stroke="#132e65" stroke-width="1.5" d="M1581.77 189.21L1581.77 189.21"/><path stroke="#132e65" stroke-width="1.5" d="M1581.77 189.21L1432.4 102.45"/><path stroke="#132e65" stroke-width="1.5" d="M1581.77 189.21L1402.31 244.56"/><path stroke="#132e65" stroke-width="1.5" d="M1581.77 189.21L1576.59 -88.23"/><path stroke="#132e65" stroke-width="1.5" d="M1581.77 189.21L1594.89 516.45"/><path stroke="#132e65" stroke-width="1.5" d="M1594.89 516.45L1594.89 516.45"/><path stroke="#132e65" stroke-width="1.5" d="M1594.89 516.45L1578.34 684.04"/><path stroke="#132e65" stroke-width="1.5" d="M1578.34 684.04L1578.34 684.04"/><path stroke="#132e65" stroke-width="1.5" d="M1578.34 684.04L1461.48 556.97"/><circle cx="-110.84" cy="348.88" r="5" fill="#132e65"/><circle cx="-111.27" cy="506.19" r="5" fill="#132e65"/><circle cx="-94.99" cy="641.96" r="5" fill="#132e65"/><circle cx="67.68" cy="503.18" r="5" fill="#132e65"/><circle cx="96.43" cy="680.19" r="5" fill="#132e65"/><circle cx="206.4" cy="371.87" r="5" fill="#132e65"/><circle cx="228.63" cy="498.81" r="5" fill="#132e65"/><circle cx="254.27" cy="675.77" r="5" fill="#132e65"/><circle cx="374.02" cy="365.98" r="5" fill="#132e65"/><circle cx="409.45" cy="499.42" r="5" fill="#132e65"/><circle cx="382.03" cy="650.2" r="5" fill="#132e65"/><circle cx="556.75" cy="378.56" r="5" fill="#132e65"/><circle cx="517.27" cy="517.42" r="5" fill="#132e65"/><circle cx="537.33" cy="709.32" r="5" fill="#132e65"/><circle cx="711" cy="227.3" r="5" fill="#132e65"/><circle cx="650.31" cy="373.84" r="5" fill="#132e65"/><circle cx="682.83" cy="532.39" r="5" fill="#132e65"/><circle cx="701.29" cy="657.84" r="5" fill="#132e65"/><circle cx="858.21" cy="188.07" r="5" fill="#132e65"/><circle cx="849.27" cy="383.86" r="5" fill="#132e65"/><circle cx="845.53" cy="557.45" r="5" fill="#132e65"/><circle cx="845.62" cy="695.97" r="5" fill="#132e65"/><circle cx="946.77" cy="90.41" r="5" fill="#132e65"/><circle cx="946.46" cy="367.71" r="5" fill="#132e65"/><circle cx="994.51" cy="497.14" r="5" fill="#132e65"/><circle cx="949.67" cy="685.35" r="5" fill="#132e65"/><circle cx="1088.81" cy="-76.78" r="5" fill="#132e65"/><circle cx="1127.93" cy="40.53" r="5" fill="#132e65"/><circle cx="1159.78" cy="241.32" r="5" fill="#132e65"/><circle cx="1101.63" cy="410.69" r="5" fill="#132e65"/><circle cx="1100.83" cy="536.29" r="5" fill="#132e65"/><circle cx="1154.92" cy="671.57" r="5" fill="#132e65"/><circle cx="1278.02" cy="-64.54" r="5" fill="#132e65"/><circle cx="1237.52" cy="204.72" r="5" fill="#132e65"/><circle cx="1270.15" cy="339.14" r="5" fill="#132e65"/><circle cx="1287.62" cy="492.58" r="5" fill="#132e65"/><circle cx="1288.87" cy="643.04" r="5" fill="#132e65"/><circle cx="1417.11" cy="-107.47" r="5" fill="#132e65"/><circle cx="1432.4" cy="102.45" r="5" fill="#132e65"/><circle cx="1402.31" cy="244.56" r="5" fill="#132e65"/><circle cx="1459.03" cy="385.42" r="5" fill="#132e65"/><circle cx="1461.48" cy="556.97" r="5" fill="#132e65"/><circle cx="1427.43" cy="709.28" r="5" fill="#132e65"/><circle cx="1576.59" cy="-88.23" r="5" fill="#132e65"/><circle cx="1543.95" cy="73.57" r="5" fill="#132e65"/><circle cx="1581.77" cy="189.21" r="5" fill="#132e65"/><circle cx="1594.89" cy="516.45" r="5" fill="#132e65"/><circle cx="1578.34" cy="684.04" r="5" fill="#132e65"/><path stroke="hsl(228.5, 77.2%, 51.5%)" stroke-width="1.5" d="M79.77 685.25L79.77 685.25"/><path stroke="hsl(228.5, 77.2%, 51.5%)" stroke-width="1.5" d="M79.77 685.25L237.84 639.41"/><path stroke="hsl(228.5, 77.2%, 51.5%)" stroke-width="1.5" d="M79.77 685.25L60.89 514.2"/><path stroke="hsl(228.5, 77.2%, 51.5%)" stroke-width="1.5" d="M79.77 685.25L192.67 514.23"/><path stroke="hsl(228.5, 77.2%, 51.5%)" stroke-width="1.5" d="M79.77 685.25L-101.48 492.61"/><path stroke="hsl(228.5, 77.2%, 51.5%)" stroke-width="1.5" d="M79.77 685.25L352.91 707.54"/><path stroke="hsl(228.5, 77.2%, 51.5%)" stroke-width="1.5" d="M192.67 514.23L192.67 514.23"/><path stroke="hsl(228.5, 77.2%, 51.5%)" stroke-width="1.5" d="M192.67 514.23L60.89 514.2"/><path stroke="hsl(228.5, 77.2%, 51.5%)" stroke-width="1.5" d="M192.67 514.23L237.84 639.41"/><path stroke="hsl(228.5, 77.2%, 51.5%)" stroke-width="1.5" d="M192.67 514.23L339.91 527.21"/><path stroke="hsl(228.5, 77.2%, 51.5%)" stroke-width="1.5" d="M192.67 514.23L352.91 707.54"/><path stroke="hsl(228.5, 77.2%, 51.5%)" stroke-width="1.5" d="M339.91 527.21L339.91 527.21"/><path stroke="hsl(228.5, 77.2%, 51.5%)" stroke-width="1.5" d="M339.91 527.21L237.84 639.41"/><path stroke="hsl(228.5, 77.2%, 51.5%)" stroke-width="1.5" d="M339.91 527.21L352.91 707.54"/><path stroke="hsl(228.5, 77.2%, 51.5%)" stroke-width="1.5" d="M669.78 505.15L669.78 505.15"/><path stroke="hsl(228.5, 77.2%, 51.5%)" stroke-width="1.5" d="M669.78 505.15L671.24 383.72"/><path stroke="hsl(228.5, 77.2%, 51.5%)" stroke-width="1.5" d="M669.78 505.15L535.77 542"/><path stroke="hsl(228.5, 77.2%, 51.5%)" stroke-width="1.5" d="M669.78 505.15L815.17 559.06"/><path stroke="hsl(228.5, 77.2%, 51.5%)" stroke-width="1.5" d="M669.78 505.15L796.99 409.88"/><path stroke="hsl(228.5, 77.2%, 51.5%)" stroke-width="1.5" d="M669.78 505.15L799.38 681.15"/><path stroke="hsl(228.5, 77.2%, 51.5%)" stroke-width="1.5" d="M669.78 505.15L967.39 395.96"/><path stroke="hsl(228.5, 77.2%, 51.5%)" stroke-width="1.5" d="M1142.02 259.42L1142.02 259.42"/><path stroke="hsl(228.5, 77.2%, 51.5%)" stroke-width="1.5" d="M1142.02 259.42L1113.02 385.41"/><path stroke="hsl(228.5, 77.2%, 51.5%)" stroke-width="1.5" d="M1142.02 259.42L1281.05 206.11"/><path stroke="hsl(228.5, 77.2%, 51.5%)" stroke-width="1.5" d="M1272.17 -108.52L1272.17 -108.52"/><path stroke="hsl(228.5, 77.2%, 51.5%)" stroke-width="1.5" d="M1272.17 -108.52L1160.49 -73.53"/><path stroke="hsl(228.5, 77.2%, 51.5%)" stroke-width="1.5" d="M1281.05 206.11L1281.05 206.11"/><path stroke="hsl(228.5, 77.2%, 51.5%)" stroke-width="1.5" d="M1281.05 206.11L1289.62 84.84"/><path stroke="hsl(228.5, 77.2%, 51.5%)" stroke-width="1.5" d="M1281.05 206.11L1113.02 385.41"/><path stroke="hsl(228.5, 77.2%, 51.5%)" stroke-width="1.5" d="M1281.05 206.11L1444.31 391.35"/><path stroke="hsl(228.5, 77.2%, 51.5%)" stroke-width="1.5" d="M1262.09 548L1262.09 548"/><path stroke="hsl(228.5, 77.2%, 51.5%)" stroke-width="1.5" d="M1262.09 548L1301.01 661.04"/><path stroke="hsl(228.5, 77.2%, 51.5%)" stroke-width="1.5" d="M1262.09 548L1103.51 504.93"/><path stroke="hsl(228.5, 77.2%, 51.5%)" stroke-width="1.5" d="M1262.09 548L1447.59 512.59"/><path stroke="hsl(228.5, 77.2%, 51.5%)" stroke-width="1.5" d="M1262.09 548L1121.22 703.53"/><path stroke="hsl(228.5, 77.2%, 51.5%)" stroke-width="1.5" d="M1583.04 500.65L1583.04 500.65"/><path stroke="hsl(228.5, 77.2%, 51.5%)" stroke-width="1.5" d="M1583.04 500.65L1605.63 403.94"/><path stroke="hsl(228.5, 77.2%, 51.5%)" stroke-width="1.5" d="M1583.04 500.65L1447.59 512.59"/><path stroke="hsl(228.5, 77.2%, 51.5%)" stroke-width="1.5" d="M1583.04 500.65L1444.31 391.35"/><path stroke="hsl(228.5, 77.2%, 51.5%)" stroke-width="1.5" d="M1583.04 500.65L1602.64 692.87"/><path stroke="hsl(228.5, 77.2%, 51.5%)" stroke-width="1.5" d="M1583.04 500.65L1453.04 695.44"/><path stroke="hsl(228.5, 77.2%, 51.5%)" stroke-width="1.5" d="M1583.04 500.65L1559.56 230.86"/><path stroke="hsl(228.5, 77.2%, 51.5%)" stroke-width="1.5" d="M-101.48 492.61L-101.48 492.61"/><path stroke="hsl(228.5, 77.2%, 51.5%)" stroke-width="1.5" d="M-101.48 492.61L60.89 514.2"/><path stroke="hsl(228.5, 77.2%, 51.5%)" stroke-width="1.5" d="M-101.48 492.61L192.67 514.23"/><path stroke="hsl(228.5, 77.2%, 51.5%)" stroke-width="1.5" d="M-101.48 492.61L237.84 639.41"/><path stroke="hsl(228.5, 77.2%, 51.5%)" stroke-width="1.5" d="M60.89 514.2L60.89 514.2"/><path stroke="hsl(228.5, 77.2%, 51.5%)" stroke-width="1.5" d="M60.89 514.2L237.84 639.41"/><path stroke="hsl(228.5, 77.2%, 51.5%)" stroke-width="1.5" d="M60.89 514.2L339.91 527.21"/><path stroke="hsl(228.5, 77.2%, 51.5%)" stroke-width="1.5" d="M60.89 514.2L352.91 707.54"/><path stroke="hsl(228.5, 77.2%, 51.5%)" stroke-width="1.5" d="M237.84 639.41L237.84 639.41"/><path stroke="hsl(228.5, 77.2%, 51.5%)" stroke-width="1.5" d="M237.84 639.41L352.91 707.54"/><path stroke="hsl(228.5, 77.2%, 51.5%)" stroke-width="1.5" d="M352.91 707.54L352.91 707.54"/><path stroke="hsl(228.5, 77.2%, 51.5%)" stroke-width="1.5" d="M352.91 707.54L535.77 542"/><path stroke="hsl(228.5, 77.2%, 51.5%)" stroke-width="1.5" d="M535.77 542L535.77 542"/><path stroke="hsl(228.5, 77.2%, 51.5%)" stroke-width="1.5" d="M535.77 542L339.91 527.21"/><path stroke="hsl(228.5, 77.2%, 51.5%)" stroke-width="1.5" d="M535.77 542L671.24 383.72"/><path stroke="hsl(228.5, 77.2%, 51.5%)" stroke-width="1.5" d="M671.24 383.72L671.24 383.72"/><path stroke="hsl(228.5, 77.2%, 51.5%)" stroke-width="1.5" d="M671.24 383.72L796.99 409.88"/><path stroke="hsl(228.5, 77.2%, 51.5%)" stroke-width="1.5" d="M671.24 383.72L815.17 559.06"/><path stroke="hsl(228.5, 77.2%, 51.5%)" stroke-width="1.5" d="M671.24 383.72L967.39 395.96"/><path stroke="hsl(228.5, 77.2%, 51.5%)" stroke-width="1.5" d="M796.99 409.88L796.99 409.88"/><path stroke="hsl(228.5, 77.2%, 51.5%)" stroke-width="1.5" d="M796.99 409.88L815.17 559.06"/><path stroke="hsl(228.5, 77.2%, 51.5%)" stroke-width="1.5" d="M796.99 409.88L967.39 395.96"/><path stroke="hsl(228.5, 77.2%, 51.5%)" stroke-width="1.5" d="M796.99 409.88L972.92 244.67"/><path stroke="hsl(228.5, 77.2%, 51.5%)" stroke-width="1.5" d="M796.99 409.88L799.38 681.15"/><path stroke="hsl(228.5, 77.2%, 51.5%)" stroke-width="1.5" d="M815.17 559.06L815.17 559.06"/><path stroke="hsl(228.5, 77.2%, 51.5%)" stroke-width="1.5" d="M815.17 559.06L799.38 681.15"/><path stroke="hsl(228.5, 77.2%, 51.5%)" stroke-width="1.5" d="M815.17 559.06L1004.11 668.78"/><path stroke="hsl(228.5, 77.2%, 51.5%)" stroke-width="1.5" d="M799.38 681.15L799.38 681.15"/><path stroke="hsl(228.5, 77.2%, 51.5%)" stroke-width="1.5" d="M799.38 681.15L1004.11 668.78"/><path stroke="hsl(228.5, 77.2%, 51.5%)" stroke-width="1.5" d="M972.92 244.67L972.92 244.67"/><path stroke="hsl(228.5, 77.2%, 51.5%)" stroke-width="1.5" d="M972.92 244.67L967.39 395.96"/><path stroke="hsl(228.5, 77.2%, 51.5%)" stroke-width="1.5" d="M967.39 395.96L967.39 395.96"/><path stroke="hsl(228.5, 77.2%, 51.5%)" stroke-width="1.5" d="M967.39 395.96L1113.02 385.41"/><path stroke="hsl(228.5, 77.2%, 51.5%)" stroke-width="1.5" d="M967.39 395.96L1103.51 504.93"/><path stroke="hsl(228.5, 77.2%, 51.5%)" stroke-width="1.5" d="M967.39 395.96L1142.02 259.42"/><path stroke="hsl(228.5, 77.2%, 51.5%)" stroke-width="1.5" d="M1004.11 668.78L1004.11 668.78"/><path stroke="hsl(228.5, 77.2%, 51.5%)" stroke-width="1.5" d="M1004.11 668.78L1121.22 703.53"/><path stroke="hsl(228.5, 77.2%, 51.5%)" stroke-width="1.5" d="M1004.11 668.78L1103.51 504.93"/><path stroke="hsl(228.5, 77.2%, 51.5%)" stroke-width="1.5" d="M1160.49 -73.53L1160.49 -73.53"/><path stroke="hsl(228.5, 77.2%, 51.5%)" stroke-width="1.5" d="M1160.49 -73.53L1289.62 84.84"/><path stroke="hsl(228.5, 77.2%, 51.5%)" stroke-width="1.5" d="M1160.49 -73.53L1412.83 -110.23"/><path stroke="hsl(228.5, 77.2%, 51.5%)" stroke-width="1.5" d="M1113.02 385.41L1113.02 385.41"/><path stroke="hsl(228.5, 77.2%, 51.5%)" stroke-width="1.5" d="M1113.02 385.41L1103.51 504.93"/><path stroke="hsl(228.5, 77.2%, 51.5%)" stroke-width="1.5" d="M1103.51 504.93L1103.51 504.93"/><path stroke="hsl(228.5, 77.2%, 51.5%)" stroke-width="1.5" d="M1121.22 703.53L1121.22 703.53"/><path stroke="hsl(228.5, 77.2%, 51.5%)" stroke-width="1.5" d="M1121.22 703.53L1301.01 661.04"/><path stroke="hsl(228.5, 77.2%, 51.5%)" stroke-width="1.5" d="M1121.22 703.53L1103.51 504.93"/><path stroke="hsl(228.5, 77.2%, 51.5%)" stroke-width="1.5" d="M1121.22 703.53L1113.02 385.41"/><path stroke="hsl(228.5, 77.2%, 51.5%)" stroke-width="1.5" d="M1289.62 84.84L1289.62 84.84"/><path stroke="hsl(228.5, 77.2%, 51.5%)" stroke-width="1.5" d="M1289.62 84.84L1272.17 -108.52"/><path stroke="hsl(228.5, 77.2%, 51.5%)" stroke-width="1.5" d="M1289.62 84.84L1142.02 259.42"/><path stroke="hsl(228.5, 77.2%, 51.5%)" stroke-width="1.5" d="M1301.01 661.04L1301.01 661.04"/><path stroke="hsl(228.5, 77.2%, 51.5%)" stroke-width="1.5" d="M1301.01 661.04L1453.04 695.44"/><path stroke="hsl(228.5, 77.2%, 51.5%)" stroke-width="1.5" d="M1301.01 661.04L1447.59 512.59"/><path stroke="hsl(228.5, 77.2%, 51.5%)" stroke-width="1.5" d="M1301.01 661.04L1103.51 504.93"/><path stroke="hsl(228.5, 77.2%, 51.5%)" stroke-width="1.5" d="M1412.83 -110.23L1412.83 -110.23"/><path stroke="hsl(228.5, 77.2%, 51.5%)" stroke-width="1.5" d="M1412.83 -110.23L1272.17 -108.52"/><path stroke="hsl(228.5, 77.2%, 51.5%)" stroke-width="1.5" d="M1412.83 -110.23L1601.16 -46.5"/><path stroke="hsl(228.5, 77.2%, 51.5%)" stroke-width="1.5" d="M1444.31 391.35L1444.31 391.35"/><path stroke="hsl(228.5, 77.2%, 51.5%)" stroke-width="1.5" d="M1444.31 391.35L1447.59 512.59"/><path stroke="hsl(228.5, 77.2%, 51.5%)" stroke-width="1.5" d="M1444.31 391.35L1605.63 403.94"/><path stroke="hsl(228.5, 77.2%, 51.5%)" stroke-width="1.5" d="M1444.31 391.35L1559.56 230.86"/><path stroke="hsl(228.5, 77.2%, 51.5%)" stroke-width="1.5" d="M1444.31 391.35L1262.09 548"/><path stroke="hsl(228.5, 77.2%, 51.5%)" stroke-width="1.5" d="M1447.59 512.59L1447.59 512.59"/><path stroke="hsl(228.5, 77.2%, 51.5%)" stroke-width="1.5" d="M1447.59 512.59L1453.04 695.44"/><path stroke="hsl(228.5, 77.2%, 51.5%)" stroke-width="1.5" d="M1453.04 695.44L1453.04 695.44"/><path stroke="hsl(228.5, 77.2%, 51.5%)" stroke-width="1.5" d="M1453.04 695.44L1602.64 692.87"/><path stroke="hsl(228.5, 77.2%, 51.5%)" stroke-width="1.5" d="M1453.04 695.44L1262.09 548"/><path stroke="hsl(228.5, 77.2%, 51.5%)" stroke-width="1.5" d="M1453.04 695.44L1444.31 391.35"/><path stroke="hsl(228.5, 77.2%, 51.5%)" stroke-width="1.5" d="M1601.16 -46.5L1601.16 -46.5"/><path stroke="hsl(228.5, 77.2%, 51.5%)" stroke-width="1.5" d="M1601.16 -46.5L1567.46 61.04"/><path stroke="hsl(228.5, 77.2%, 51.5%)" stroke-width="1.5" d="M1567.46 61.04L1567.46 61.04"/><path stroke="hsl(228.5, 77.2%, 51.5%)" stroke-width="1.5" d="M1567.46 61.04L1559.56 230.86"/><path stroke="hsl(228.5, 77.2%, 51.5%)" stroke-width="1.5" d="M1567.46 61.04L1412.83 -110.23"/><path stroke="hsl(228.5, 77.2%, 51.5%)" stroke-width="1.5" d="M1559.56 230.86L1559.56 230.86"/><path stroke="hsl(228.5, 77.2%, 51.5%)" stroke-width="1.5" d="M1559.56 230.86L1605.63 403.94"/><path stroke="hsl(228.5, 77.2%, 51.5%)" stroke-width="1.5" d="M1559.56 230.86L1281.05 206.11"/><path stroke="hsl(228.5, 77.2%, 51.5%)" stroke-width="1.5" d="M1559.56 230.86L1601.16 -46.5"/><path stroke="hsl(228.5, 77.2%, 51.5%)" stroke-width="1.5" d="M1605.63 403.94L1605.63 403.94"/><path stroke="hsl(228.5, 77.2%, 51.5%)" stroke-width="1.5" d="M1602.64 692.87L1602.64 692.87"/><circle cx="79.77" cy="685.25" r="25" fill="url(#SvgjsRadialGradient1043)"/><circle cx="192.67" cy="514.23" r="25" fill="url(#SvgjsRadialGradient1043)"/><circle cx="339.91" cy="527.21" r="25" fill="url(#SvgjsRadialGradient1043)"/><circle cx="669.78" cy="505.15" r="25" fill="url(#SvgjsRadialGradient1043)"/><circle cx="1142.02" cy="259.42" r="25" fill="url(#SvgjsRadialGradient1043)"/><circle cx="1272.17" cy="-108.52" r="25" fill="url(#SvgjsRadialGradient1043)"/><circle cx="1281.05" cy="206.11" r="25" fill="url(#SvgjsRadialGradient1043)"/><circle cx="1262.09" cy="548" r="25" fill="url(#SvgjsRadialGradient1043)"/><circle cx="1583.04" cy="500.65" r="25" fill="url(#SvgjsRadialGradient1043)"/><circle cx="-101.48" cy="492.61" r="5" fill="#8b9ad9"/><circle cx="60.89" cy="514.2" r="5" fill="#8b9ad9"/><circle cx="237.84" cy="639.41" r="5" fill="#8b9ad9"/><circle cx="352.91" cy="707.54" r="5" fill="#8b9ad9"/><circle cx="535.77" cy="542" r="5" fill="#8b9ad9"/><circle cx="671.24" cy="383.72" r="5" fill="#8b9ad9"/><circle cx="796.99" cy="409.88" r="5" fill="#8b9ad9"/><circle cx="815.17" cy="559.06" r="5" fill="#8b9ad9"/><circle cx="799.38" cy="681.15" r="5" fill="#8b9ad9"/><circle cx="972.92" cy="244.67" r="5" fill="#8b9ad9"/><circle cx="967.39" cy="395.96" r="5" fill="#8b9ad9"/><circle cx="1004.11" cy="668.78" r="5" fill="#8b9ad9"/><circle cx="1160.49" cy="-73.53" r="5" fill="#8b9ad9"/><circle cx="1113.02" cy="385.41" r="5" fill="#8b9ad9"/><circle cx="1103.51" cy="504.93" r="5" fill="#8b9ad9"/><circle cx="1121.22" cy="703.53" r="5" fill="#8b9ad9"/><circle cx="1289.62" cy="84.84" r="5" fill="#8b9ad9"/><circle cx="1301.01" cy="661.04" r="5" fill="#8b9ad9"/><circle cx="1412.83" cy="-110.23" r="5" fill="#8b9ad9"/><circle cx="1444.31" cy="391.35" r="5" fill="#8b9ad9"/><circle cx="1447.59" cy="512.59" r="5" fill="#8b9ad9"/><circle cx="1453.04" cy="695.44" r="5" fill="#8b9ad9"/><circle cx="1601.16" cy="-46.5" r="5" fill="#8b9ad9"/><circle cx="1567.46" cy="61.04" r="5" fill="#8b9ad9"/><circle cx="1559.56" cy="230.86" r="5" fill="#8b9ad9"/><circle cx="1605.63" cy="403.94" r="5" fill="#8b9ad9"/><circle cx="1602.64" cy="692.87" r="5" fill="#8b9ad9"/></g><defs><mask id="SvgjsMask1042"><rect width="1440" height="560" fill="#fff"/></mask><radialGradient id="SvgjsRadialGradient1043"><stop offset=".1" stop-color="#fff"/><stop offset=".2" stop-color="#1735b3"/><stop offset="1" stop-color="rgba(23, 53, 179, 0)"/></radialGradient></defs></svg>